<?xml version="1.0" encoding="UTF-8" standalone="no"?>
<svg
   xmlns:dc="http://purl.org/dc/elements/1.1/"
   xmlns:cc="http://creativecommons.org/ns#"
   xmlns:rdf="http://www.w3.org/1999/02/22-rdf-syntax-ns#"
   xmlns:svg="http://www.w3.org/2000/svg"
   xmlns="http://www.w3.org/2000/svg"
   xmlns:sodipodi="http://sodipodi.sourceforge.net/DTD/sodipodi-0.dtd"
   xmlns:inkscape="http://www.inkscape.org/namespaces/inkscape"
   width="97px"
   height="36px"
   viewBox="0 0 97 36"
   version="1.1"
   id="SVGRoot"
   sodipodi:docname="pogovorit.svg"
   inkscape:version="1.0.1 (3bc2e813f5, 2020-09-07)">
  <style
     id="style13932"></style>
  <defs
     id="defs11800" />
  <sodipodi:namedview
     id="base"
     pagecolor="#ffffff"
     bordercolor="#666666"
     borderopacity="1.0"
     inkscape:pageopacity="0.0"
     inkscape:pageshadow="2"
     inkscape:zoom="4.8504201"
     inkscape:cx="85.144771"
     inkscape:cy="24.512008"
     inkscape:document-units="px"
     inkscape:current-layer="g14297"
     inkscape:document-rotation="0"
     showgrid="false"
     inkscape:window-width="1920"
     inkscape:window-height="1009"
     inkscape:window-x="-8"
     inkscape:window-y="-8"
     inkscape:window-maximized="1"
     inkscape:snap-page="true" />
  <metadata
     id="metadata11803">
    <rdf:RDF>
      <cc:Work
         rdf:about="">
        <dc:format>image/svg+xml</dc:format>
        <dc:type
           rdf:resource="http://purl.org/dc/dcmitype/StillImage" />
        <dc:title />
      </cc:Work>
    </rdf:RDF>
  </metadata>
  <g
     inkscape:label="Слой 1"
     inkscape:groupmode="layer"
     id="layer1">
    <g
       id="g14297">
      <g
         id="g2401"
         transform="translate(-0.99977367,-1.9998119)">
        <path
           style="fill:#222021;fill-opacity:1;stroke-width:1"
           d="m 22.565462,31.268656 c -0.636911,-0.214732 -0.970206,-0.429434 -1.329054,-0.856152 -0.479322,-0.569977 -0.670147,-1.213791 -0.614906,-2.074591 0.05314,-0.828004 0.285003,-1.341944 0.832611,-1.845507 0.563026,-0.517741 0.995822,-0.68122 1.830222,-0.691325 1.130757,-0.01369 1.910158,0.42785 2.476683,1.40308 0.227983,0.392454 0.255037,0.53734 0.255037,1.365854 0,0.833792 -0.02627,0.972315 -0.261708,1.379961 -0.482061,0.834664 -1.254221,1.316233 -2.245423,1.40039 -0.335262,0.02847 -0.713955,-0.0043 -0.943462,-0.08171 z m 1.582496,-1.259617 c 0.49559,-0.343317 0.696708,-0.68957 0.745029,-1.28268 0.05556,-0.681883 -0.224885,-1.322089 -0.713891,-1.629705 -0.450106,-0.283148 -1.211895,-0.298318 -1.665382,-0.03317 -0.613768,0.35887 -0.937136,1.414886 -0.661028,2.158711 0.12108,0.326188 0.539795,0.798816 0.808625,0.912743 0.396773,0.168148 1.15485,0.103947 1.486647,-0.125904 z m 9.152682,1.259617 c -1.320929,-0.445347 -1.959684,-1.323978 -1.96188,-2.698641 -0.0019,-1.1894 0.549483,-2.117604 1.529481,-2.574748 0.67476,-0.314758 1.710729,-0.285421 2.418815,0.0685 1.238208,0.61889 1.795546,2.004419 1.376451,3.421824 -0.39293,1.328916 -2.070942,2.218634 -3.362867,1.783065 z m 1.479015,-1.182942 c 1.304094,-0.686412 1.063564,-2.826451 -0.355992,-3.167343 -1.088737,-0.261449 -1.939831,0.473587 -1.936169,1.672147 0.002,0.642143 0.296489,1.204083 0.763726,1.457146 0.402872,0.218201 1.150797,0.23682 1.528435,0.03805 z m 10.614579,1.179475 c -1.59139,-0.454904 -2.403277,-2.287429 -1.740404,-3.928302 0.198693,-0.491844 0.775465,-1.067048 1.317326,-1.313745 0.390584,-0.177825 0.662416,-0.227025 1.221284,-0.221045 0.836909,0.009 1.265655,0.171504 1.838322,0.696965 1.119853,1.02754 1.152575,3.041765 0.06645,4.090346 -0.676622,0.653233 -1.799639,0.934003 -2.702978,0.675781 z m 1.566499,-1.217525 c 0.915403,-0.495795 1.04192,-2.182524 0.213458,-2.845826 -1.159756,-0.928551 -2.792029,0.0934 -2.568837,1.60832 0.07687,0.521752 0.35806,0.982101 0.747524,1.223798 0.404996,0.251338 1.15727,0.257752 1.607855,0.01371 z m 34.200784,0.928301 c -0.605731,-0.377826 -1.247005,-1.098392 -1.261493,-2.40595 -0.01299,-1.172716 0.617324,-2.107421 1.589476,-2.555275 1.436479,-0.661763 2.975187,-0.128297 3.689167,1.275549 0.434948,0.855208 0.372794,1.937793 0.01908,2.528527 -0.3514,0.586869 -0.798087,0.93977 -1.234173,1.234402 -0.44161,0.298364 -1.123333,0.375397 -1.785594,0.320498 -0.373218,-0.08672 -0.705605,-0.227884 -1.016463,-0.397751 z m 6.239607,-1.10777 c -0.806284,-1.546603 -0.08839,-3.608119 1.804405,-4.033912 1.286051,-0.289305 2.634968,0.279639 3.227998,1.490941 0.312427,0.638151 0.342828,1.750231 0.06488,2.373121 -0.603442,1.352305 -1.84285,1.653006 -2.665272,1.665085 -1.269341,0.01488 -1.926581,-0.655155 -2.432011,-1.495235 z M 4.4037808,31.17977 c 0.003,-0.194615 2.347367,-5.357504 2.440583,-5.374701 0.08741,-0.01612 2.440804,5.159207 2.444058,5.374701 0.0013,0.08394 -0.173735,0.121951 -0.561454,0.121951 h -0.563296 l -0.206167,-0.487805 -0.206167,-0.487805 h -0.936579 -0.936578 l -0.12728,0.365854 c -0.192595,0.553598 -0.269364,0.609756 -0.83354,0.609756 -0.349441,0 -0.514839,-0.03927 -0.51358,-0.121951 z m 2.969486,-1.828242 c 0,-0.22476 -0.511201,-1.373011 -0.578864,-1.300234 -0.129805,0.139612 -0.555529,1.246308 -0.508944,1.32303 0.06702,0.11038 1.087808,0.08899 1.087808,-0.0228 z m 7.4762852,-0.781514 v -2.731707 h 2.108696 2.108695 v 2.731707 2.731707 H 18.539769 18.012596 V 29.106599 26.911477 H 16.958248 15.9039 v 2.195122 2.195122 h -0.527174 -0.527174 z m 12.748025,0 v -2.731707 h 1.533597 1.533596 v 0.536585 0.536585 h -0.958498 -0.958498 v 2.195122 2.195122 h -0.575099 -0.575098 z m 10.735178,0.01251 v -2.744213 h 1.001706 c 1.727617,0 2.432478,0.286516 2.640644,1.073384 0.120655,0.45608 -0.07342,1.143535 -0.382567,1.355132 -0.19531,0.133681 -0.193761,0.138737 0.0978,0.319208 0.321842,0.199219 0.573497,0.696735 0.570159,1.127191 -0.0012,0.149285 -0.08615,0.459906 -0.188866,0.69027 -0.289959,0.650288 -0.767006,0.823496 -2.420937,0.879008 l -1.317935,0.04423 z m 2.587945,1.450908 c 0.248362,-0.252796 0.244169,-0.604339 -0.01,-0.838537 -0.155763,-0.143524 -0.34678,-0.185853 -0.838686,-0.185853 h -0.636983 l -0.02854,0.609756 -0.02854,0.609756 h 0.675522 c 0.547723,0 0.711789,-0.03691 0.867222,-0.195122 z m -0.436386,-2.046821 c 0.367347,-0.142158 0.504591,-0.515622 0.303998,-0.827231 -0.143718,-0.223256 -0.221293,-0.247899 -0.780394,-0.247899 h -0.620815 v 0.520325 c 0,0.28618 0.02875,0.549594 0.0639,0.585366 0.09593,0.09764 0.752175,0.07823 1.033311,-0.03056 z m 9.989418,3.250073 c -0.03515,-0.03577 -0.0639,-1.270768 -0.0639,-2.744434 v -2.679393 l 1.27001,0.04528 c 1.051824,0.0375 1.338439,0.08112 1.668311,0.253907 0.698756,0.36601 1.066356,1.064416 0.950019,1.804944 -0.14818,0.943206 -0.803867,1.430392 -2.033188,1.510693 l -0.704954,0.04605 v 0.914 0.913999 h -0.511199 c -0.28116,0 -0.539954,-0.02927 -0.575098,-0.06504 z m 2.450765,-3.036524 c 0.113754,-0.115784 0.191423,-0.334713 0.197614,-0.557024 0.01464,-0.525631 -0.266273,-0.731655 -0.997601,-0.731655 h -0.564481 v 0.794038 0.794038 l 0.588528,-0.05432 c 0.403476,-0.03724 0.647454,-0.114298 0.77594,-0.245077 z m 2.852924,0.321077 V 25.74075 h 0.575099 0.575098 v 1.486661 1.486661 l 1.533597,-1.558688 1.533597,-1.558689 v 2.808604 2.808603 l -0.551136,-0.02926 -0.551136,-0.02926 -0.04792,-1.452346 -0.04793,-1.452346 -1.42413,1.525517 c -0.783271,0.839034 -1.462607,1.525516 -1.509634,1.525516 -0.04811,0 -0.0855,-1.216143 -0.0855,-2.780488 z m 7.188737,0.585366 v -2.195122 h -0.766799 -0.766798 v -0.536585 -0.536585 h 2.06077 2.060771 v 0.536585 0.536585 h -0.766798 -0.766799 v 2.195122 2.195122 H 63.493331 62.966158 Z M 66.99185,28.58319 v -2.744879 h 0.527174 0.527173 v 0.914293 0.914295 l 0.74924,0.04415 c 0.553364,0.03261 0.860328,0.106024 1.17416,0.280827 0.950848,0.529623 1.144612,1.964148 0.364078,2.695439 -0.433848,0.406479 -0.929477,0.541995 -2.167665,0.592686 l -1.17416,0.04807 z m 2.448526,1.405896 c 0.25822,-0.262829 0.292674,-0.501159 0.126207,-0.873036 -0.128671,-0.287443 -0.524845,-0.448471 -1.103364,-0.448471 h -0.417022 v 0.780488 0.780487 h 0.579456 c 0.487425,0 0.616822,-0.03803 0.814723,-0.239468 z m 3.911216,-7.247407 -0.68522,-0.03347 -0.852906,-2.020315 -0.852907,-2.020315 -4.470099,-0.04878 -4.4701,-0.04878 0.694611,-1.609756 0.694611,-1.609756 3.037181,-0.02576 c 1.67045,-0.01417 3.037182,-0.06074 3.037182,-0.103499 -1.121333,-2.545612 -1.885344,-4.331569 -3.085965,-7.1180154 0.699025,-1.5468803 1.3923,-3.2534165 2.032133,-4.7786648 0.03849,0.04259 1.538116,3.4478911 3.210966,7.3917932 1.67285,3.943903 3.082191,7.249699 3.13187,7.346214 0.0801,0.15562 0.246182,-0.06594 0.855229,-0.610899 1.655698,-1.481463 2.73707,-2.597088 2.967469,-3.213009 l 0.193455,-0.55222 0.110636,-3.238378 c 0.0074,-2.0032012 -0.004,-3.3359201 -0.004,-3.3359201 0.0562,0 0.579129,0.234381 0.928262,0.408381 0.866979,0.432085 1.97559,1.556962 2.385498,2.420504 0.407483,0.8584311 0.595618,1.7268731 0.590665,2.7265471 -0.01058,2.134568 -0.753589,3.37994 -3.611994,6.054104 -0.751557,0.703114 -1.491527,1.463403 -1.644378,1.689531 -0.373584,0.55268 -0.521676,1.156257 -0.451881,1.841731 l 0.05712,0.560975 -1.55609,-0.01938 c -0.591226,-0.0074 -1.25534,-0.02099 -1.733739,-0.03479 -0.214124,-0.0062 -0.391294,-0.0091 -0.50757,-0.01807 z M 71.876104,9.0907911 c -0.995548,-0.431676 -0.97296,-0.408685 -0.995548,-0.431676 -0.09002,-0.09163 0.536921,-1.5734364 0.941754,-2.2345604 0.863777,-1.410614 2.411583,-2.567513 4.078048,-2.9311847 0.32975,-0.071961 0.865928,-0.1557015 1.389359,-0.1701075 0.523432,-0.014406 1.01714,0.03761 1.301825,0.080171 l 0.28016,0.041884 0.0055,1.8139027 0.01848,1.852928 -0.372389,-0.1055677 C 78.247389,6.92836 77.855748,6.8661999 77.485898,6.8704699 c -0.762991,0.0088 -1.4771,0.306145 -2.047892,0.852647 -0.422706,0.40472 -0.955475,1.2247855 -1.155773,1.7565409 -0.08238,0.2187023 -0.184604,0.4366513 -0.225583,0.5545392 -0.05755,-0.0037 -0.588658,-0.232593 -1.263517,-0.540134 z"
           id="path13954"
           sodipodi:nodetypes="csssssssscsssssssssssssssscssssscssssssssscssssscccssscccccscccccsscsssssccccccccccccccccccccccccccccccccsssscssccssscccsssssscssssscsssscccsssssscccssccccccccccccccsssccccccccccccccccccccccccssssccssscccssccccccccscccssssccssssssscsssccssssscccssssccc" />
        <path
           style="fill:#ea252f;fill-opacity:1;stroke-width:1"
           d="m 73.5317,21.882086 c -0.127045,-0.749006 -0.07541,-1.558118 0.281854,-2.224935 0.196585,-0.507568 0.862398,-1.291812 1.025686,-1.517236 0.09372,-0.129383 0.179891,-0.14328 0.788938,-0.688239 1.655698,-1.481463 2.73707,-2.597088 2.967469,-3.213009 l 0.193455,-0.55222 0.110636,-3.238378 c 0.0074,-2.0032014 -0.004,-3.3359203 -0.004,-3.3359203 0.0562,0 0.579129,0.234381 0.928262,0.408381 0.866979,0.432085 1.97559,1.556962 2.385498,2.420504 0.407483,0.8584313 0.595618,1.7268733 0.590665,2.7265473 -0.01058,2.134568 -0.753589,3.37994 -3.611994,6.054104 -0.751557,0.703114 -1.491527,1.463403 -1.644378,1.689531 -0.373584,0.55268 -0.521676,1.156257 -0.451881,1.841731 l 0.05712,0.560975 -1.55609,-0.01938 c -0.591226,-0.0074 -1.191923,-0.0056 -1.733739,-0.03479 v 0 C 73.756182,22.491788 73.708719,22.446048 73.5317,21.882086 Z M 71.876104,9.0907909 c -0.995548,-0.431676 -0.97296,-0.408685 -0.995548,-0.431676 -0.09002,-0.09163 0.536921,-1.5734364 0.941754,-2.2345604 0.863777,-1.410614 2.411583,-2.567513 4.078048,-2.9311847 0.32975,-0.071961 0.865928,-0.1557015 1.389359,-0.1701075 0.523432,-0.014406 1.01714,0.03761 1.301825,0.080171 l 0.28016,0.041884 0.0055,1.8139027 0.01848,1.852928 -0.372389,-0.1055677 c -0.275904,-0.078221 -0.667545,-0.1403806 -1.037395,-0.1361106 -0.762991,0.0088 -1.4771,0.306145 -2.047892,0.852647 -0.422706,0.40472 -0.955475,1.2247855 -1.155773,1.7565409 -0.08238,0.2187023 -0.184604,0.4366513 -0.225583,0.5545394 -0.05755,-0.0037 -0.588658,-0.2325932 -1.263517,-0.5401342 z"
           id="path13954-0"
           sodipodi:nodetypes="ccsssccssssssscsccccssssscccssssccc" />
        <path
           style="fill:#ea252f;fill-opacity:1;stroke-width:1"
           d="m 74.963654,31.409537 c -1.1872,-0.327461 -2.087946,-1.4668 -2.087946,-2.665993 0,-0.776038 0.251752,-1.290506 0.676784,-1.862904 0.756666,-1.019018 2.270011,-1.301557 3.371636,-0.723764 0.612798,0.321408 1.093544,0.864937 1.341837,1.456005 0.424894,1.01147 0.254298,2.204763 -0.483591,2.970654 -0.618585,0.64206 -1.842307,1.095323 -2.81872,0.826002 z"
           id="path13954-6"
           sodipodi:nodetypes="sssssss" />
      </g>
    </g>
  </g>
</svg>
