<?xml version="1.0" encoding="UTF-8" standalone="no"?>
<svg
   xmlns:dc="http://purl.org/dc/elements/1.1/"
   xmlns:cc="http://creativecommons.org/ns#"
   xmlns:rdf="http://www.w3.org/1999/02/22-rdf-syntax-ns#"
   xmlns:svg="http://www.w3.org/2000/svg"
   xmlns="http://www.w3.org/2000/svg"
   xmlns:sodipodi="http://sodipodi.sourceforge.net/DTD/sodipodi-0.dtd"
   xmlns:inkscape="http://www.inkscape.org/namespaces/inkscape"
   width="91px"
   height="34px"
   viewBox="0 0 91 34"
   version="1.1"
   id="SVGRoot"
   sodipodi:docname="fond_.svg"
   inkscape:version="1.0.1 (3bc2e813f5, 2020-09-07)">
  <style
     id="style4530"></style>
  <defs
     id="defs2398" />
  <sodipodi:namedview
     id="base"
     pagecolor="#ffffff"
     bordercolor="#666666"
     borderopacity="1.0"
     inkscape:pageopacity="0.0"
     inkscape:pageshadow="2"
     inkscape:zoom="10.610294"
     inkscape:cx="31.80372"
     inkscape:cy="22.819577"
     inkscape:document-units="px"
     inkscape:current-layer="layer1"
     inkscape:document-rotation="0"
     showgrid="false"
     inkscape:window-width="1920"
     inkscape:window-height="1009"
     inkscape:window-x="-8"
     inkscape:window-y="-8"
     inkscape:window-maximized="1"
     inkscape:snap-page="true" />
  <metadata
     id="metadata2401">
    <rdf:RDF>
      <cc:Work
         rdf:about="">
        <dc:format>image/svg+xml</dc:format>
        <dc:type
           rdf:resource="http://purl.org/dc/dcmitype/StillImage" />
        <dc:title></dc:title>
      </cc:Work>
    </rdf:RDF>
  </metadata>
  <g
     inkscape:label="Слой 1"
     inkscape:groupmode="layer"
     id="layer1">
    <g
       id="g6811"
       transform="translate(0,-2.0004492)">
      <path
         style="fill:#ea3544;fill-opacity:1;stroke-width:0.002;stroke-linejoin:round"
         d="m 49.709097,20.791169 c -0.455143,-0.166251 -0.559754,-0.252582 -0.738898,-0.609786 l -0.12446,-0.248166 v -0.345791 -0.345792 l 0.225908,-0.268313 0.225909,-0.268312 0.330225,-0.131295 0.330225,-0.131295 0.524706,-0.05907 c 0.288588,-0.03249 0.613668,-0.07695 0.7224,-0.09879 l 0.197694,-0.03972 0.0066,-0.237253 c 0.0064,-0.229599 0.0031,-0.247692 -0.101157,-0.56086 -0.106645,-0.320353 -0.109458,-0.325509 -0.279758,-0.512807 l -0.17203,-0.1892 h -0.24644 -0.246411 l -0.08997,0.108934 c -0.04948,0.05991 -0.09841,0.123317 -0.108727,0.140896 -0.01031,0.01758 -0.04203,0.273727 -0.07049,0.569216 -0.02845,0.29549 -0.05531,0.539937 -0.05968,0.543217 -0.0044,0.0033 -0.143894,-0.0053 -0.310061,-0.01907 l -0.302122,-0.02504 -0.148124,-0.137343 -0.148124,-0.137344 -0.0027,-0.206536 -0.0027,-0.206536 0.192813,-0.288692 0.192812,-0.288692 0.491938,-0.278772 0.491938,-0.278772 h 0.654278 0.654279 l 0.283505,0.155646 0.283505,0.155646 0.17505,0.342307 0.175051,0.342308 0.01705,1.341079 0.01705,1.341079 0.06628,0.107726 0.06628,0.107725 0.200285,-0.04454 c 0.110156,-0.0245 0.239358,-0.05329 0.287115,-0.06397 0.07508,-0.0168 0.08534,-0.0143 0.07584,0.01846 -0.006,0.02083 -0.01784,0.08644 -0.02621,0.145781 -0.0084,0.05935 -0.02702,0.122574 -0.04144,0.14051 -0.01442,0.01794 -0.182789,0.142556 -0.374153,0.276934 l -0.347936,0.244325 -0.40983,0.01421 -0.409831,0.01421 -0.214492,-0.254988 c -0.139113,-0.165378 -0.224431,-0.249198 -0.242772,-0.23851 -0.01555,0.0091 -0.09404,0.07726 -0.174409,0.151542 -0.136202,0.125888 -0.169499,0.143412 -0.490129,0.257958 -0.466298,0.166587 -0.538362,0.166269 -1.005709,-0.0044 z m 1.595455,-0.78332 0.109721,-0.108071 v -0.602863 -0.602862 l -0.349733,-2.59e-4 c -0.346769,-2.57e-4 -0.35161,4.5e-4 -0.571053,0.08326 l -0.221319,0.08352 -0.09779,0.186671 -0.09779,0.18667 0.05388,0.26327 0.05388,0.263271 0.171736,0.177733 0.171736,0.177733 h 0.333502 0.333502 z"
         id="path6748" />
      <path
         style="fill:#ea3544;fill-opacity:1;stroke-width:0.002;stroke-linejoin:round"
         d="m 43.378394,20.803944 -0.204143,-0.108591 -0.112482,-0.203716 -0.112481,-0.203717 0.0141,-0.229333 c 0.0078,-0.126133 0.02124,-0.236034 0.02996,-0.244224 0.0087,-0.0082 0.217095,-0.03181 0.463055,-0.0525 0.24596,-0.02068 0.475265,-0.04311 0.509566,-0.04984 0.04392,-0.0086 0.109013,-0.0711 0.220057,-0.211237 l 0.157691,-0.198998 0.09509,-0.470134 c 0.09357,-0.462616 0.09533,-0.480273 0.11028,-1.104255 l 0.01519,-0.634122 -0.157843,-0.174278 -0.157844,-0.174279 h -0.120893 -0.120893 v -0.217991 -0.217991 l 2.023868,0.0059 2.023867,0.0059 v 0.194933 0.194933 l -0.237255,0.0492 c -0.13049,0.02706 -0.244895,0.05802 -0.254233,0.0688 -0.0093,0.01078 -0.03934,0.189878 -0.06668,0.397998 -0.04376,0.33316 -0.04969,0.486703 -0.04966,1.284267 2.3e-5,0.77867 0.0066,0.957391 0.04707,1.272801 0.02587,0.201813 0.05547,0.387573 0.06579,0.4128 0.01302,0.03184 0.09331,0.07313 0.262597,0.135025 l 0.243841,0.08916 v 0.160501 0.1605 l -0.991866,-0.01497 c -0.545527,-0.0082 -1.111869,-0.02121 -1.258537,-0.02884 l -0.266669,-0.01386 -0.02573,-0.08588 c -0.01415,-0.04723 -0.02573,-0.09622 -0.02573,-0.108864 0,-0.01264 0.11094,-0.07173 0.246534,-0.131299 0.203953,-0.08961 0.257426,-0.123852 0.3096,-0.198262 l 0.06307,-0.08995 v -1.628426 -1.628426 l -0.474507,0.0062 -0.474507,0.0062 -0.05296,0.136769 c -0.04858,0.125456 -0.05296,0.172341 -0.05296,0.566836 0,0.374652 -0.01195,0.51808 -0.09275,1.113098 l -0.09275,0.683031 -0.172683,0.506618 -0.172682,0.506618 -0.244835,0.241603 -0.244835,0.241603 -0.217866,0.04887 c -0.119827,0.02688 -0.223027,0.04744 -0.229334,0.04569 -0.0063,-0.0018 -0.103331,-0.05205 -0.21561,-0.111776 z"
         id="path6750" />
      <path
         style="fill:#ea3544;fill-opacity:1;stroke-width:0.002;stroke-linejoin:round"
         d="m 36.802529,20.637703 -0.06054,-0.102485 0.157568,-0.117916 c 0.139423,-0.104336 0.170469,-0.117915 0.2696,-0.117915 h 0.112032 l 0.04894,-0.134221 c 0.04815,-0.132059 0.04894,-0.15911 0.04894,-1.678999 v -1.544778 l -0.09651,-0.09834 c -0.09301,-0.09477 -0.101638,-0.09833 -0.237992,-0.09833 -0.155082,0 -0.166478,-0.0078 -0.222047,-0.151042 -0.03535,-0.09115 -0.03473,-0.09641 0.02276,-0.192822 l 0.0591,-0.09911 0.688276,0.01509 c 0.378552,0.0083 0.913635,0.01509 1.189074,0.01509 h 0.500798 v 0.18021 0.18021 l -0.203926,0.02787 -0.203924,0.02787 -0.03937,0.103084 c -0.03587,0.09393 -0.03786,0.181859 -0.02239,0.990189 0.0093,0.487909 0.02336,0.982805 0.03116,1.099771 l 0.01418,0.212666 0.809431,-1.010226 0.809431,-1.010226 -0.02637,-0.134038 -0.02637,-0.134039 -0.246697,-0.119139 -0.246696,-0.11914 0.02865,-0.137299 c 0.01576,-0.07551 0.0324,-0.140625 0.03697,-0.144689 0.0046,-0.0041 0.550118,-0.01125 1.212318,-0.01596 l 1.204,-0.0086 v 0.194933 0.194933 l -0.232826,0.04829 c -0.128054,0.02656 -0.249381,0.05464 -0.269614,0.0624 -0.03338,0.01281 -0.03624,0.170922 -0.03091,1.70469 l 0.0059,1.690573 0.263733,0.104624 0.263733,0.104623 0.0068,0.1548 0.0068,0.1548 h -1.239448 -1.239449 v -0.15774 -0.15774 l 0.263726,-0.10026 0.263725,-0.10026 8e-6,-1.180837 8e-6,-1.180838 -0.135232,0.137371 c -0.07438,0.07555 -0.451058,0.527822 -0.837067,1.005041 l -0.701835,0.867671 v 0.166569 0.166569 l 0.258001,0.133074 c 0.1419,0.07319 0.262004,0.136387 0.266897,0.140437 0.0049,0.004 -0.0038,0.05283 -0.01939,0.108403 l -0.02829,0.101042 -0.267274,0.014 c -0.147001,0.0077 -0.690395,0.02043 -1.207542,0.02828 l -0.940267,0.01428 z"
         id="path6752" />
      <path
         style="fill:#ea3544;fill-opacity:1;stroke-width:0.002;stroke-linejoin:round"
         d="m 43.204138,28.936738 v -0.169051 l 0.257919,-0.09162 0.25792,-0.09162 0.06205,-0.65093 0.06205,-0.65093 -0.03818,-0.948599 -0.03818,-0.948598 -0.115503,-0.146469 -0.115503,-0.146468 H 43.370426 43.204142 V 24.8602 24.627947 l 0.4988,0.01451 c 0.27434,0.008 1.09736,0.02564 1.828933,0.03925 l 1.330134,0.02473 0.320505,0.142136 0.320504,0.142137 0.143896,0.204222 0.143895,0.204223 v 0.27724 0.27724 l -0.139933,0.201113 -0.139934,0.201114 -0.389995,0.195253 c -0.214497,0.107389 -0.384695,0.200553 -0.378216,0.207032 0.0065,0.0065 0.163545,0.03627 0.349038,0.06622 0.229323,0.03702 0.352942,0.06767 0.386264,0.09579 0.108435,0.09151 0.508812,0.455657 0.524559,0.47709 0.0093,0.01261 0.01701,0.171665 0.0172,0.353449 l 3.51e-4,0.330514 -0.143334,0.22613 -0.143333,0.22613 -0.381277,0.19312 -0.381278,0.193119 -0.480584,0.09304 -0.480585,0.09304 h -1.402805 -1.402805 z m 2.733596,-0.257314 0.222395,-0.03932 0.196138,-0.181827 0.196138,-0.181826 v -0.293808 -0.293807 l -0.22122,-0.266216 c -0.219024,-0.263572 -0.222725,-0.266659 -0.372667,-0.31085 -0.381122,-0.112322 -0.50499,-0.138777 -0.649786,-0.138777 h -0.155261 v 0.695458 0.695458 l 0.105191,0.135875 c 0.08505,0.109863 0.130055,0.145624 0.235067,0.186796 0.07143,0.02801 0.150516,0.0467 0.175743,0.04155 0.02523,-0.0052 0.145944,-0.02707 0.268262,-0.0487 z m -0.327531,-2.106885 0.376465,-0.05527 0.202602,-0.201663 0.202602,-0.201663 v -0.20926 -0.209259 l -0.137785,-0.204019 -0.137784,-0.204019 -0.338082,-0.0966 c -0.229983,-0.06571 -0.383913,-0.09688 -0.481416,-0.09747 l -0.143334,-8.69e-4 v 0.768267 c 0,0.716619 0.0027,0.768227 0.04013,0.767676 0.02207,-3.25e-4 0.209542,-0.02546 0.416598,-0.05586 z"
         id="path6754" />
      <path
         style="fill:#ea3544;fill-opacity:1;stroke-width:0.002;stroke-linejoin:round"
         d="m 49.848406,29.197932 c -0.236281,-0.06139 -0.534903,-0.193395 -0.616967,-0.272727 -0.02121,-0.0205 -0.116672,-0.164669 -0.212134,-0.320363 l -0.173566,-0.283081 v -0.359073 -0.359074 l 0.269467,-0.312441 0.269466,-0.312441 0.298134,-0.09299 c 0.252268,-0.07869 0.405741,-0.107383 0.9976,-0.186527 0.384707,-0.05144 0.707207,-0.09345 0.716667,-0.09334 0.0095,1.03e-4 0.0172,-0.105301 0.0172,-0.234233 0,-0.226163 -0.0051,-0.24965 -0.143333,-0.66666 l -0.143334,-0.432239 -0.172,-0.09119 -0.172,-0.09119 -0.210309,0.02398 c -0.11567,0.01319 -0.221355,0.02398 -0.234857,0.02398 -0.0135,0 -0.07624,0.103013 -0.139425,0.228917 l -0.114876,0.228917 v 0.424683 0.424684 h -0.327583 -0.327584 l -0.114464,-0.1204 c -0.06296,-0.06622 -0.138104,-0.14759 -0.166996,-0.180822 l -0.05253,-0.06042 0.04858,-0.272112 c 0.02672,-0.149662 0.05394,-0.290322 0.0605,-0.312579 0.0066,-0.02226 0.176544,-0.182984 0.377758,-0.35717 l 0.365842,-0.316703 0.440907,-0.130933 0.440906,-0.130934 0.4472,0.0019 0.4472,0.0019 0.340435,0.199545 0.340435,0.199544 0.155917,0.298134 0.155917,0.298133 0.01528,1.284267 c 0.01434,1.205239 0.01824,1.295204 0.06338,1.462001 0.02646,0.09775 0.0594,0.177733 0.07322,0.177733 0.01381,0 0.133433,-0.02064 0.265823,-0.04587 0.343236,-0.0654 0.320678,-0.07352 0.287416,0.103481 -0.01544,0.08214 -0.03224,0.152945 -0.03734,0.157341 -0.0051,0.0044 -0.171308,0.12295 -0.369348,0.263453 l -0.360074,0.255459 h -0.420812 -0.420802 l -0.191512,-0.22935 c -0.105331,-0.126133 -0.198405,-0.229333 -0.206831,-0.229333 -0.0084,0 -0.158654,0.09804 -0.33384,0.217867 l -0.318521,0.217866 -0.207373,2.48e-4 c -0.117234,1.38e-4 -0.256306,0.01509 -0.319951,0.0344 -0.06192,0.01878 -0.118678,0.03322 -0.126133,0.03207 -0.0075,-0.0011 -0.124795,-0.03098 -0.260755,-0.06631 z m 1.385412,-0.807493 0.180455,-0.09615 v -0.614783 -0.614783 h -0.453364 -0.453363 l -0.221623,0.2236 -0.221622,0.2236 0.05502,0.284332 0.05502,0.284331 0.132632,0.117002 c 0.07295,0.06435 0.173912,0.155444 0.224365,0.202429 l 0.09173,0.08543 0.215145,5.73e-4 c 0.209147,5.58e-4 0.220176,-0.0021 0.3956,-0.09558 z"
         id="path6756" />
      <path
         style="fill:#ea3544;fill-opacity:1;stroke-width:0.002;stroke-linejoin:round"
         d="m 39.466003,29.187127 -0.424266,-0.07248 -0.334581,-0.223437 -0.33458,-0.223436 -0.21227,-0.28726 c -0.199208,-0.26958 -0.218487,-0.305792 -0.313287,-0.588436 L 37.746003,27.490899 V 26.90596 26.321022 l 0.128593,-0.310417 c 0.110525,-0.266799 0.160196,-0.352689 0.353501,-0.61126 l 0.224908,-0.300844 0.457985,-0.243823 0.457984,-0.243823 h 0.80357 0.80357 l 0.427902,0.267183 c 0.342408,0.2138 0.439787,0.285967 0.48739,0.3612 0.03272,0.05171 0.153998,0.249903 0.269508,0.44043 l 0.210018,0.346413 0.03006,0.616787 0.03006,0.616787 -0.107436,0.387487 -0.107436,0.387487 -0.260305,0.300513 c -0.447761,0.516928 -0.38771,0.470027 -0.850132,0.663967 l -0.4128,0.173128 -0.344,0.03566 c -0.1892,0.01961 -0.3698,0.03927 -0.401334,0.04368 -0.03153,0.0044 -0.248253,-0.02459 -0.4816,-0.06445 z m 1.205365,-0.568671 c 0.22123,-0.232702 0.219066,-0.228752 0.275749,-0.503333 0.04819,-0.23344 0.0536,-0.321154 0.05446,-0.88256 l 9.56e-4,-0.623358 -0.171289,-0.500375 -0.171289,-0.500375 -0.316045,-0.303681 -0.316044,-0.303681 -0.172453,-1.86e-4 -0.172453,-1.86e-4 -0.214883,0.215781 -0.214884,0.215781 -0.06173,0.329122 -0.06173,0.329122 0.04161,0.68227 0.04161,0.682271 0.200706,0.470317 0.200705,0.470318 0.215767,0.171576 0.215766,0.171577 h 0.255499 0.2555 z"
         id="path6758" />
      <path
         style="fill:#ea3544;fill-opacity:1;stroke-width:0.002;stroke-linejoin:round"
         d="M 65.033286,29.446833 64.669743,29.122808 64.595466,28.9251 c -0.04085,-0.108741 -0.146632,-0.42376 -0.235067,-0.700045 l -0.16079,-0.502334 v -0.383902 -0.383904 l 0.110322,-0.248962 c 0.06947,-0.156777 0.207465,-0.39424 0.372667,-0.641292 0.256393,-0.383429 0.28534,-0.416557 1.275909,-1.460201 l 1.013563,-1.067871 0.336928,-0.512068 c 0.327261,-0.497376 0.343467,-0.527858 0.564866,-1.062467 l 0.227938,-0.5504 0.03688,-0.849084 0.03688,-0.849084 -0.177547,-0.47926 c -0.09765,-0.263593 -0.188962,-0.500588 -0.202913,-0.526654 -0.01395,-0.02607 -0.223093,-0.264232 -0.464762,-0.529257 l -0.439398,-0.481862 -0.79944,-0.385041 -0.799441,-0.385042 -0.609408,-0.135462 c -0.608581,-0.135279 -0.611055,-0.135618 -1.824761,-0.250088 -0.668444,-0.06304 -1.581713,-0.146939 -2.029486,-0.186432 -0.751727,-0.0663 -0.865114,-0.08223 -1.479201,-0.207734 l -0.665067,-0.135928 -0.600429,-0.277577 -0.60043,-0.277577 -0.239064,-0.267027 c -0.131485,-0.146864 -0.267226,-0.300516 -0.301648,-0.341448 -0.04647,-0.05526 -0.0861,-0.163539 -0.153919,-0.420606 l -0.09133,-0.346184 0.06014,-0.310387 c 0.05281,-0.272574 0.07661,-0.342866 0.195375,-0.576994 0.111797,-0.220394 0.211955,-0.363552 0.57781,-0.825883 l 0.442571,-0.559275 0.57159,-0.272058 0.57159,-0.272059 h 0.927981 0.927981 l 0.747896,0.161343 c 0.411343,0.08874 0.835616,0.185641 0.94283,0.215338 0.5085,0.14085 3.435372,0.971355 3.841334,1.089986 0.252267,0.07372 0.835676,0.243435 1.296465,0.37715 l 0.837799,0.243117 h 0.395531 0.395532 l 0.360537,-0.16312 c 0.198295,-0.08972 0.376408,-0.181037 0.395807,-0.202934 0.0194,-0.0219 0.08554,-0.16436 0.146978,-0.316582 l 0.111709,-0.276767 -0.220771,-1.475366 c -0.12143,-0.811451 -0.27332,-1.8572052 -0.33754,-2.3238987 L 69.7697,7.7433838 69.401011,6.5648743 69.032323,5.3863651 69.092255,5.0264014 69.152186,4.6664374 69.3363,4.3326105 69.520414,3.9987836 69.927346,3.7363257 C 70.257139,3.5236196 70.48161,3.403596 71.111509,3.1031585 l 0.77723,-0.3707093 0.66757,8.363e-4 0.667569,8.362e-4 0.488743,0.1890488 0.488744,0.1890488 0.436056,0.3318484 0.436056,0.3318484 0.246779,0.4930668 0.24678,0.4930668 0.09979,0.4890745 0.09978,0.4890746 -0.05249,0.573167 -0.05249,0.5731672 -0.570343,1.2052759 -0.570344,1.205276 -0.145697,0.6335498 -0.145698,0.6335493 0.03089,1.031913 0.03089,1.031912 0.142147,0.143422 0.142146,0.143421 h 0.528036 0.528036 l 0.78586,-0.322182 c 0.763572,-0.313045 0.802016,-0.331887 1.355558,-0.664394 0.512898,-0.308092 0.621979,-0.385152 1.094051,-0.772885 l 0.524352,-0.430673 0.424983,-0.540485 C 80.66351,9.1070178 80.76227,8.9967653 81.106681,8.7439243 81.275762,8.619799 81.439219,8.5019221 81.469922,8.4819756 c 0.07907,-0.051372 0.912098,-0.2960637 1.001822,-0.2942747 0.04099,8.188e-4 0.240606,0.027435 0.443582,0.059151 l 0.369045,0.057664 0.554019,0.5376501 0.554022,0.5376499 0.177733,0.3754305 0.177733,0.3754296 v 0.372684 0.372684 l -0.190583,0.394712 -0.19058,0.394712 -0.37887,0.424025 c -0.20838,0.233213 -0.39766,0.439504 -0.420623,0.458424 -0.02296,0.01892 -0.199731,0.11696 -0.392816,0.217867 l -0.351064,0.183467 -1.011789,0.905867 -1.011787,0.905867 -0.875411,1.018956 c -0.481476,0.560426 -0.882112,1.029986 -0.890301,1.043467 -0.0082,0.01348 -0.05695,0.219234 -0.108358,0.45723 l -0.09347,0.432719 0.09132,0.41067 c 0.08671,0.389931 0.100586,0.429181 0.274889,0.777272 0.174427,0.348343 0.207539,0.396749 0.66472,0.971762 l 0.481151,0.605157 0.670986,0.536537 c 0.624433,0.499313 0.711559,0.560584 1.255786,0.883136 0.545639,0.32339 0.620888,0.360641 1.123733,0.55629 0.296414,0.11533 0.760814,0.296483 1.032001,0.402564 0.271186,0.106081 0.543256,0.212146 0.6046,0.2357 0.06135,0.02355 0.337159,0.20535 0.612924,0.40399 l 0.501389,0.361164 0.387968,0.554361 c 0.302383,0.432067 0.428982,0.636512 0.573877,0.926757 l 0.185909,0.372398 v 0.274689 c 0,0.264206 -0.0034,0.283424 -0.08872,0.503483 l -0.08872,0.22879 -0.412855,0.44279 -0.412853,0.442787 -0.695573,0.491994 c -0.666309,0.471296 -0.712435,0.499566 -1.096452,0.672 l -0.400879,0.180006 -0.672876,-0.03532 -0.672875,-0.03532 -0.635896,-0.300046 -0.635896,-0.300046 -0.2064,-0.230113 C 81.104742,27.858686 81.02023,27.734492 80.810319,27.366176 L 80.553557,26.915655 78.941251,25.30523 77.328946,23.694804 76.598319,23.304296 75.867692,22.913788 H 75.172081 74.47647 l -0.316696,0.186253 -0.316695,0.186254 -0.371559,0.587746 c -0.204358,0.323261 -0.482998,0.742088 -0.6192,0.930727 l -0.247642,0.34298 -0.841871,0.608753 c -1.162056,0.840278 -1.212702,0.891112 -2.121707,2.129601 -0.679136,0.925299 -0.681301,0.927927 -0.997435,1.211099 -0.297181,0.266196 -0.322695,0.283788 -0.411586,0.283788 -0.08248,0 -0.129721,0.02527 -0.364437,0.194934 l -0.269671,0.194933 H 66.4974 65.396829 Z"
         id="path6760" />
      <path
         style="fill:#ea3544;fill-opacity:1;stroke-width:0.002;stroke-linejoin:round"
         d="m 48.412982,13.001976 c 0.0072,-0.243425 0.01981,-0.695431 0.028,-1.004458 l 0.01489,-0.561867 0.298134,-0.04307 c 0.163973,-0.02369 0.301496,-0.04597 0.305606,-0.04952 0.0041,-0.0035 0.09969,-0.304089 0.212406,-0.667868 L 49.476951,10.013784 49.57173,9.3389632 49.66651,8.664142 49.612253,8.3574436 C 49.582412,8.1887594 49.552538,8.0422139 49.545867,8.031787 49.539197,8.02136 49.429208,7.9604761 49.301447,7.8964894 49.078254,7.7847073 49.068566,7.7767347 49.054129,7.6929668 c -0.0083,-0.047951 -0.02065,-0.1155631 -0.02753,-0.1502497 l -0.0125,-0.063067 h 2.123156 2.123156 v 0.1573821 0.1573822 l -0.260109,0.098638 -0.260108,0.098638 -0.02696,0.433725 c -0.02058,0.331039 -0.0207,0.7305803 -5.2e-4,1.6875806 0.01454,0.68962 0.02915,1.257105 0.03247,1.261078 0.0033,0.004 0.148979,0.0195 0.323696,0.03451 l 0.317666,0.02729 0.006,0.981494 0.006,0.981493 -0.120647,-0.0069 -0.120647,-0.0069 -0.212663,-0.52746 -0.212663,-0.527461 -0.161395,-0.16248 -0.161396,-0.162479 -0.359808,-0.08437 -0.359809,-0.08437 -0.802667,-3.35e-4 -0.802667,-3.37e-4 -0.370126,0.08471 -0.370126,0.08471 -0.157341,0.205836 c -0.148138,0.193798 -0.168285,0.23549 -0.344475,0.712874 l -0.187136,0.507037 -0.127529,0.0069 -0.127529,0.0069 z M 51.311073,9.6579169 V 7.9145826 l -0.5676,0.00613 -0.5676,0.00613 -0.01463,0.5389335 c -0.02006,0.7388918 -0.114791,1.36448 -0.326428,2.1557339 -0.08266,0.309027 -0.16099,0.597919 -0.174078,0.641982 -0.01309,0.04406 -0.02379,0.09308 -0.02379,0.108933 0,0.02261 0.180357,0.02882 0.837067,0.02882 h 0.837067 z"
         id="path6762" />
      <path
         style="fill:#ea3544;fill-opacity:1;stroke-width:0.002;stroke-linejoin:round"
         d="m 42.267425,11.840912 c -0.02473,-0.02733 -0.03795,-0.08214 -0.03795,-0.157345 v -0.115406 l 0.246717,-0.09495 c 0.231632,-0.08914 0.250562,-0.101315 0.3096,-0.199057 l 0.06288,-0.104107 V 9.6536573 8.1372661 l -0.06785,-0.1052078 c -0.06346,-0.098408 -0.08347,-0.1109849 -0.3096,-0.1945939 L 42.229471,7.7480783 V 7.6107389 7.4733995 l 0.991867,0.014975 c 0.545526,0.00824 1.11214,0.02123 1.259141,0.028875 l 0.267275,0.0139 0.02829,0.1010419 c 0.01556,0.055573 0.02265,0.1066844 0.01575,0.1135808 -0.0069,0.0069 -0.124421,0.051906 -0.261165,0.1000209 l -0.248626,0.087482 -0.06115,0.6136439 -0.06115,0.613644 0.05846,0.088344 0.05846,0.088344 0.793886,-2.04e-5 0.793886,-2.05e-5 0.04792,-0.1318462 0.04792,-0.1318463 -0.06306,-0.5733334 c -0.03468,-0.3153334 -0.06399,-0.5747586 -0.06512,-0.5765004 -0.0011,-0.00174 -0.09495,-0.026117 -0.208467,-0.054167 l -0.2064,-0.051 V 7.649084 7.4796504 h 1.228028 1.228028 l -0.0068,0.1399753 -0.0068,0.1399753 -0.229333,0.086794 c -0.208365,0.078858 -0.2351,0.095837 -0.2924,0.1856994 l -0.06307,0.098906 4.36e-4,1.5261924 4.36e-4,1.5261932 0.06552,0.1032 c 0.0615,0.09686 0.08058,0.108665 0.310888,0.19224 0.220067,0.07986 0.244121,0.09405 0.233275,0.1376 -0.0067,0.02671 -0.01887,0.09117 -0.02714,0.14325 -0.01462,0.09198 -0.01803,0.0951 -0.118964,0.108934 -0.05715,0.0078 -0.602994,0.01424 -1.21298,0.01424 h -1.109066 v -0.192366 -0.192367 l 0.2064,-0.051 c 0.11352,-0.02805 0.2064,-0.05851 0.2064,-0.06768 0,-0.0092 0.02579,-0.201522 0.05732,-0.427434 0.04192,-0.300409 0.05732,-0.510857 0.05733,-0.783415 l 1.6e-5,-0.3726668 h -0.882934 -0.882934 l 2.28e-4,0.3382668 c 2.31e-4,0.345017 0.08949,1.206127 0.128959,1.244177 0.01093,0.01054 0.12308,0.05476 0.249214,0.09826 0.220893,0.07618 0.229599,0.08176 0.23656,0.151477 0.0053,0.05354 -0.01157,0.09612 -0.06499,0.16357 l -0.07222,0.09119 H 43.48101 c -1.109763,0 -1.177711,-0.0023 -1.21354,-0.04194 z"
         id="path6764" />
      <path
         style="fill:#ea3544;fill-opacity:1;stroke-width:0.002;stroke-linejoin:round"
         d="m 38.109688,11.830183 -0.461915,-0.188132 -0.309841,-0.366933 -0.309841,-0.366933 -0.128377,-0.4393 -0.128378,-0.439299 V 9.7015474 9.3735093 l 0.1204,-0.4098817 0.1204,-0.4098816 0.27944,-0.3557071 0.279441,-0.3557072 0.459277,-0.2255963 0.459277,-0.2255964 0.494888,-0.057688 0.494887,-0.057688 0.496678,0.1468726 0.496677,0.1468726 0.385099,0.384599 0.385099,0.3845991 0.156503,0.4706052 0.156503,0.4706053 -0.04379,0.5504001 -0.04379,0.5504001 -0.18703,0.356412 c -0.183696,0.350059 -0.191401,0.360514 -0.43223,0.586523 -0.22907,0.214973 -0.270868,0.24325 -0.635383,0.429861 l -0.390182,0.199752 -0.603018,0.0331 c -0.331659,0.01821 -0.613337,0.03284 -0.625951,0.03252 -0.01261,-3.18e-4 -0.230795,-0.08524 -0.484848,-0.188709 z m 1.437333,-0.317253 c 0.175223,-0.04802 0.180212,-0.05145 0.29212,-0.200667 0.101257,-0.135017 0.123069,-0.18617 0.197158,-0.462386 l 0.0833,-0.310573 V 10.039318 9.5393319 L 39.947528,8.9777783 39.775453,8.4162248 39.494595,8.1193222 39.213737,7.8224196 l -0.296709,0.00635 -0.296709,0.00635 -0.171191,0.2843117 -0.171192,0.2843116 -0.05831,0.4742682 -0.05831,0.4742681 0.105703,0.5516902 0.105703,0.5516896 0.233523,0.435941 0.233523,0.435941 0.255784,0.115278 c 0.140682,0.0634 0.259703,0.116107 0.264493,0.117122 0.0048,10e-4 0.08893,-0.02014 0.186976,-0.04701 z"
         id="path6766" />
      <path
         style="fill:#ea3544;fill-opacity:1;stroke-width:0.002;stroke-linejoin:round"
         d="M 31.39729,13.70223 C 31.38889,13.69383 31.382,13.62787 31.382,13.555672 v -0.131269 l 0.261989,-0.09709 0.261989,-0.09709 0.04761,-0.17645 c 0.04015,-0.148809 0.04761,-0.243196 0.04761,-0.60252 v -0.42607 l -0.200666,-0.02799 c -0.5479,-0.07643 -0.680482,-0.109372 -1.120854,-0.278467 l -0.438586,-0.168411 -0.334618,-0.38217 -0.334617,-0.382169 -0.103996,-0.350254 -0.103997,-0.350254 0.0015,-0.4027769 c 0.0015,-0.401898 0.0017,-0.4035114 0.09747,-0.7395887 L 29.558801,8.6062933 29.899986,8.2321719 30.24117,7.8580505 30.653934,7.659956 c 0.272384,-0.1307231 0.452732,-0.203361 0.530282,-0.2135799 0.143025,-0.018847 0.720599,-0.1238178 0.778123,-0.1414203 0.03849,-0.011778 0.04088,-0.046019 0.03401,-0.4865877 l -0.0074,-0.473918 -0.07521,-0.1867472 C 31.838609,5.971173 31.838399,5.9709246 31.730663,5.9441659 31.671333,5.9294319 31.56862,5.9017959 31.5024,5.8827519 L 31.382,5.8481279 V 5.6813869 5.5146451 L 31.513868,5.47682 c 0.09373,-0.026885 0.340803,-0.047841 0.854267,-0.072454 0.39732,-0.019046 0.776468,-0.039855 0.842551,-0.046244 l 0.120151,-0.011615 0.006,0.9669098 0.006,0.9669097 0.194933,0.052725 c 0.137495,0.037189 0.259974,0.05304 0.415667,0.053795 l 0.220733,0.00107 0.536067,0.2614449 0.536067,0.2614447 0.184532,0.2062191 c 0.172177,0.1924123 0.1964,0.2328701 0.361802,0.6042886 l 0.177271,0.3980698 -0.0021,0.4816001 -0.0021,0.4816003 -0.141868,0.391214 -0.141867,0.391213 -0.405303,0.383732 -0.405302,0.383731 -0.431765,0.138635 c -0.273911,0.08795 -0.549146,0.158792 -0.752831,0.193768 -0.176587,0.03032 -0.328807,0.05523 -0.338267,0.05535 -0.0095,1.15e-4 -0.01678,0.229841 -0.01626,0.510487 l 9.37e-4,0.510267 0.06213,0.08687 c 0.04921,0.0688 0.112191,0.109654 0.302928,0.196477 l 0.2408,0.109612 0.0068,0.14179 0.0068,0.14179 H 32.68265 c -0.69854,0 -1.276953,-0.0069 -1.285362,-0.01529 z m 2.158475,-2.16638 c 0.156768,-0.03834 0.247726,-0.07891 0.422039,-0.18828 l 0.222202,-0.139412 0.207798,-0.428152 0.207798,-0.428152 V 9.7899412 9.228029 L 34.456627,8.8138437 34.297652,8.3996584 34.061027,8.1695327 C 33.834015,7.9487557 33.814808,7.935658 33.588246,7.8471287 33.45836,7.7963756 33.34742,7.7548504 33.341712,7.7548504 c -0.0057,0 -0.01038,0.8617203 -0.01038,1.9149339 0,1.0532137 0.0055,1.9149337 0.0123,1.9149337 0.0068,0 0.102223,-0.02199 0.212133,-0.04887 z M 32.001201,9.6583176 V 7.7548504 h -0.06776 c -0.06597,0 -0.742977,0.3184645 -0.794965,0.373952 -0.01411,0.01506 -0.103194,0.1925015 -0.197964,0.3943149 l -0.172309,0.3669334 -0.05017,0.3930378 -0.05017,0.393038 0.14371,0.5586955 0.143711,0.558696 0.188146,0.265025 0.188146,0.265025 0.260276,0.117263 c 0.143152,0.06449 0.293817,0.118093 0.33481,0.119108 l 0.07453,0.0018 z"
         id="path6768" />
      <path
         style="fill:#ea3544;fill-opacity:1;stroke-width:0.002;stroke-linejoin:round"
         d="m 33.056135,20.901953 c -0.03153,-0.0057 -0.178417,-0.03898 -0.326409,-0.07393 -0.238042,-0.05622 -0.293185,-0.07913 -0.478122,-0.198623 l -0.209047,-0.13508 -0.146811,-0.306733 -0.146811,-0.306734 v -0.264982 -0.264982 l 0.177127,-0.292579 0.177127,-0.29258 0.370471,-0.163057 0.370471,-0.163058 0.536002,-0.05781 c 0.294801,-0.0318 0.618562,-0.07519 0.719469,-0.09644 l 0.183467,-0.03863 0.0061,-0.252211 c 0.0056,-0.233036 -7.98e-4,-0.277357 -0.08475,-0.582949 l -0.09086,-0.330737 -0.166941,-0.168063 -0.166941,-0.168063 h -0.268784 -0.268784 l -0.101268,0.19507 -0.101268,0.19507 -0.05121,0.475679 c -0.02817,0.261624 -0.0547,0.481321 -0.05896,0.488215 -0.0043,0.0069 -0.143212,-5.77e-4 -0.308781,-0.0166 L 32.319589,18.053006 32.160395,17.911522 32.0012,17.770039 v -0.17936 -0.179359 l 0.173602,-0.264 0.173601,-0.263999 0.359599,-0.246094 0.359599,-0.246094 0.470133,-0.108398 0.470134,-0.108398 0.389866,0.05809 0.389867,0.05809 0.269795,0.165303 0.269794,0.165303 0.168317,0.343702 0.168317,0.343702 0.03337,1.391666 c 0.01836,0.765416 0.04084,1.399136 0.04998,1.408267 0.0091,0.0091 0.133075,-0.0061 0.27543,-0.03384 0.142356,-0.02774 0.271017,-0.05044 0.285913,-0.05044 0.0175,0 0.02708,0.04408 0.02708,0.124565 v 0.124564 l -0.269466,0.229069 -0.269467,0.229068 -0.341789,0.09547 -0.341789,0.09547 -0.151278,-0.03748 c -0.333613,-0.08266 -0.304853,-0.06489 -0.483869,-0.298933 -0.09162,-0.119784 -0.171442,-0.21779 -0.177373,-0.21779 -0.0059,0 -0.0985,0.07963 -0.205701,0.176959 l -0.194918,0.17696 -0.347375,0.09801 c -0.340918,0.09619 -0.380874,0.102776 -0.496442,0.08184 z m 1.095067,-0.837423 0.143333,-0.0514 v -0.673959 -0.67396 l -0.108933,0.01338 c -0.05991,0.0074 -0.273167,0.02603 -0.473898,0.04148 l -0.364964,0.0281 -0.133836,0.11138 -0.133836,0.111379 2.09e-4,0.371831 2.09e-4,0.371831 0.185158,0.200666 0.185159,0.200667 0.279033,5e-6 c 0.23113,4e-6 0.30364,-0.0088 0.422366,-0.05139 z"
         id="path6770" />
      <path
         style="fill:#ea3544;fill-opacity:1;stroke-width:0.002;stroke-linejoin:round"
         d="m 25.836862,20.573232 0.0067,-0.161888 0.347812,-0.154505 0.347811,-0.154505 0.595313,-0.666416 c 0.392428,-0.439299 0.604636,-0.694666 0.62267,-0.749308 L 27.784528,18.60372 27.1553,17.771687 26.526071,16.939654 26.224952,16.791292 C 25.8976,16.630004 25.90705,16.641765 25.948707,16.447524 l 0.02488,-0.115987 1.275656,0.0059 1.275656,0.0059 0.0286,0.1376 c 0.01573,0.07568 0.02905,0.143605 0.0296,0.150944 5.51e-4,0.0073 -0.102199,0.05243 -0.228333,0.100193 -0.179609,0.06802 -0.229333,0.0963 -0.229333,0.130449 0,0.131787 0.265963,0.5424 0.722591,1.115592 0.0029,0.0036 0.103029,-0.125419 0.222614,-0.286667 0.187471,-0.252784 0.476662,-0.739438 0.476662,-0.802132 0,-0.0113 -0.08713,-0.08507 -0.193614,-0.163941 l -0.193615,-0.143399 0.05028,-0.139973 0.05028,-0.139973 0.493067,0.01486 c 0.271187,0.0082 0.659663,0.01489 0.86328,0.01492 0.413705,6.3e-5 0.384978,-0.01299 0.408599,0.185661 l 0.01474,0.123995 -0.373845,0.192979 -0.373844,0.192979 -0.602001,0.584114 c -0.542872,0.526742 -0.602,0.591398 -0.602,0.658281 0,0.06079 0.101516,0.212258 0.56278,0.839708 0.711893,0.968377 0.855792,1.115771 1.231754,1.261672 l 0.246534,0.09567 v 0.134097 0.134097 h -1.364534 -1.364534 v -0.172 c 0,-0.0946 0.0089,-0.172 0.01976,-0.172 0.01087,0 0.108806,-0.04173 0.217642,-0.09273 l 0.197884,-0.09273 -0.086,-0.170925 c -0.077,-0.153058 -0.710649,-1.085178 -0.739231,-1.087441 -0.0064,-5.05e-4 -0.05349,0.06874 -0.104712,0.153883 -0.05122,0.08514 -0.198226,0.290658 -0.326681,0.456706 l -0.233555,0.301906 v 0.216197 0.216197 l 0.166266,0.08969 0.166267,0.08969 0.0069,0.131805 0.0069,0.131805 h -0.93095 -0.930949 z"
         id="path6772" />
      <path
         style="fill:#ea3544;fill-opacity:1;stroke-width:0.002;stroke-linejoin:round"
         d="m 19.754798,20.57738 v -0.15774 l 0.263726,-0.10026 0.263725,-0.10026 8e-6,-1.638865 8e-6,-1.638866 -0.09651,-0.09834 c -0.09619,-0.09801 -0.09706,-0.09833 -0.263734,-0.09833 h -0.167225 v -0.221575 -0.221576 l 0.760544,0.01517 c 0.418299,0.0083 0.963941,0.01518 1.212536,0.01518 h 0.451992 l 0.01549,0.09747 c 0.0085,0.05361 0.02126,0.120615 0.02831,0.148908 0.01152,0.04622 -0.01244,0.06367 -0.236163,0.172 l -0.24898,0.120559 -0.01504,0.710933 c -0.0083,0.391014 -0.02014,0.92032 -0.02637,1.176235 -0.0094,0.384001 -0.006,0.460908 0.01898,0.440151 0.01667,-0.01383 0.396584,-0.481219 0.844258,-1.038635 l 0.813952,-1.013484 -0.02743,-0.1376 -0.02743,-0.1376 -0.248204,-0.12068 c -0.222679,-0.108269 -0.24689,-0.125958 -0.235419,-0.172 0.007,-0.02823 0.01976,-0.09518 0.02828,-0.148787 l 0.01549,-0.09747 h 0.451992 c 0.248595,0 0.794236,-0.0068 1.212536,-0.01518 l 0.760543,-0.01517 v 0.221576 0.221575 h -0.167225 c -0.166673,0 -0.167543,3.25e-4 -0.263733,0.09833 l -0.09651,0.09834 8e-6,1.638866 8e-6,1.638865 0.263725,0.10026 0.263725,0.10026 v 0.15774 0.15774 h -1.239544 -1.239545 l 0.0069,-0.130369 0.0069,-0.13037 0.258,-0.135224 0.258001,-0.135224 V 19.032876 17.86182 l -0.14229,0.155284 c -0.07826,0.08541 -0.44978,0.537998 -0.825601,1.00576 l -0.68331,0.850475 v 0.16512 0.165119 l 0.258,0.136579 0.258,0.136578 0.0069,0.129193 0.0069,0.129192 h -1.239545 -1.239545 z"
         id="path6774" />
      <path
         style="fill:#ea3544;fill-opacity:1;stroke-width:0.002;stroke-linejoin:round"
         d="m 12.599597,20.588862 c 0,-0.09007 0.01101,-0.154653 0.02867,-0.168107 0.01577,-0.01202 0.121547,-0.05581 0.235067,-0.09732 0.11352,-0.04151 0.217884,-0.08712 0.231919,-0.10136 0.01403,-0.01424 0.04758,-0.139412 0.07455,-0.278159 0.04626,-0.237974 0.04903,-0.320322 0.04901,-1.453508 -1.8e-5,-1.148854 -0.0021,-1.208863 -0.04811,-1.376 l -0.04809,-0.174759 -0.263448,-0.156992 c -0.227981,-0.135856 -0.261792,-0.163643 -0.251142,-0.2064 0.0068,-0.02717 0.01902,-0.09163 0.02722,-0.143228 l 0.01491,-0.09382 0.689388,-0.01511 c 0.379163,-0.0083 0.829607,-0.01506 1.000986,-0.01499 l 0.311597,1.25e-4 0.617455,1.250341 c 0.3396,0.687687 0.625362,1.242331 0.635025,1.232542 0.0097,-0.0098 0.163133,-0.342879 0.341044,-0.740199 0.17791,-0.39732 0.433377,-0.946861 0.567704,-1.221201 l 0.244231,-0.4988 h 0.971169 0.97117 l -0.0067,0.177317 -0.0067,0.177317 -0.2064,0.04853 -0.2064,0.04853 -0.05986,0.204152 -0.05986,0.204151 -0.0125,1.214161 c -0.01233,1.197077 -0.01175,1.218614 0.04121,1.530651 0.02954,0.17407 0.05931,0.325545 0.06615,0.336611 0.0068,0.01107 0.04619,0.02668 0.08745,0.03469 0.04126,0.008 0.14983,0.03102 0.241277,0.05113 l 0.166267,0.03656 v 0.169698 0.169698 h -1.2384 -1.238401 v -0.172 -0.172 h 0.12588 c 0.124473,0 0.127416,-0.0016 0.263234,-0.143333 l 0.137354,-0.143333 5e-4,-1.382532 4.99e-4,-1.382532 -0.06639,0.07562 c -0.03991,0.04545 -0.308643,0.615237 -0.673695,1.428398 l -0.607304,1.352783 -0.335029,0.0063 -0.335028,0.0063 -0.698553,-1.393812 -0.698553,-1.393811 -0.0013,1.218572 -0.0013,1.218572 0.08153,0.215639 0.08153,0.215639 0.222333,0.05646 0.222333,0.05646 0.0067,0.166267 0.0067,0.166266 H 13.448958 12.59942 Z"
         id="path6776" />
      <path
         style="fill:#ea3544;fill-opacity:1;stroke-width:0.002;stroke-linejoin:round"
         d="m 3.4491942,28.934673 v -0.171116 l 0.086,-0.0226 c 0.0473,-0.01243 0.1376,-0.03482 0.2006667,-0.04976 0.063067,-0.01494 0.1262317,-0.03871 0.1403668,-0.05282 0.014135,-0.01412 0.057995,-0.111684 0.097467,-0.216822 l 0.071767,-0.19116 -5.66e-5,-1.310974 -5.66e-5,-1.310974 -0.065215,-0.229291 -0.065215,-0.229291 -0.1697947,-0.03929 c -0.093387,-0.02161 -0.1916663,-0.04471 -0.2183983,-0.05133 -0.039099,-0.0097 -0.051589,-0.03564 -0.063867,-0.132748 -0.00839,-0.06639 -0.021212,-0.154255 -0.028482,-0.195248 l -0.013219,-0.07453 h 2.7457581 2.7457578 l -0.016457,0.153672 c -0.026235,0.244982 -0.028799,0.248176 -0.2246212,0.279765 -0.1352673,0.02182 -0.1826496,0.04039 -0.2283033,0.08945 l -0.05761,0.06191 -0.014802,1.215528 c -0.0148,1.215336 1.238e-4,2.144206 0.034449,2.144206 0.010022,0 0.127072,0.04204 0.2601113,0.09343 l 0.2418896,0.09343 v 0.158834 0.158835 H 7.6689286 6.4305283 v -0.158526 -0.158526 l 0.1777334,-0.06756 c 0.097753,-0.03716 0.2164334,-0.08141 0.2637334,-0.09835 l 0.086,-0.03079 V 26.888115 25.184188 H 6.1667949 5.3755947 v 1.532371 c 0,1.260253 0.00582,1.552455 0.032773,1.645468 0.018025,0.0622 0.043918,0.155823 0.05754,0.208047 l 0.024767,0.09495 0.2061935,0.05095 0.2061934,0.05095 v 0.169434 0.169433 H 4.6761279 3.4491942 Z"
         id="path6778" />
      <path
         style="fill:#ea3544;fill-opacity:1;stroke-width:0.002;stroke-linejoin:round"
         d="m 9.5763934,30.910312 c -0.038661,-0.04115 -0.049864,-0.08129 -0.049864,-0.178634 v -0.125555 l 0.2522667,-0.08787 c 0.1387467,-0.04833 0.2522669,-0.09036 0.2522669,-0.09341 0,-0.003 0.02493,-0.12822 0.05541,-0.278161 l 0.05541,-0.272621 -0.01195,-2.052534 -0.01195,-2.052534 -0.05493,-0.259834 c -0.03021,-0.14291 -0.05492,-0.261964 -0.05492,-0.264566 0,-0.0026 -0.1119424,-0.05996 -0.2487615,-0.127471 l -0.248762,-0.12274 0.028311,-0.135665 c 0.015571,-0.07462 0.034459,-0.141815 0.041974,-0.14933 0.00751,-0.0075 0.403418,-0.04123 0.8797845,-0.07492 0.793448,-0.05612 0.875261,-0.05835 0.975055,-0.02659 0.125354,0.0399 0.125431,0.04024 0.06307,0.278184 -0.02479,0.0946 -0.04526,0.17974 -0.04547,0.1892 -2.16e-4,0.0095 0.03831,0.01706 0.08561,0.01689 0.07764,-2.77e-4 0.09752,-0.01438 0.204493,-0.145067 0.113237,-0.138339 0.131051,-0.150024 0.401588,-0.263427 l 0.283095,-0.118666 h 0.417728 0.417728 l 0.353572,0.200201 c 0.347903,0.196991 0.355023,0.202597 0.444128,0.349733 0.04981,0.08224 0.169786,0.278809 0.266623,0.436814 l 0.176066,0.28728 0.03344,0.687386 0.03343,0.687387 -0.148583,0.4472 -0.148583,0.4472 -0.300163,0.355467 -0.300162,0.355466 -0.405001,0.199025 -0.405,0.199024 -0.50625,0.0016 c -0.482038,0.0016 -0.514312,-0.0011 -0.674817,-0.05569 -0.09271,-0.03153 -0.179659,-0.05734 -0.193217,-0.05734 -0.01703,-4e-6 -0.02231,0.14712 -0.01708,0.475867 l 0.0076,0.475872 0.105635,0.208648 0.105635,0.208649 0.212661,0.05127 c 0.230519,0.05557 0.223486,0.04871 0.248314,0.242368 0.0081,0.06307 0.01997,0.132727 0.02641,0.1548 0.01105,0.03788 -0.06016,0.04013 -1.27011,0.04013 H 9.6262577 Z m 3.0810836,-2.203006 0.293776,-0.123283 0.147071,-0.501651 0.147071,-0.50165 -0.04845,-0.435733 c -0.03656,-0.328858 -0.07206,-0.522903 -0.14471,-0.791122 l -0.09626,-0.355388 -0.224421,-0.269545 -0.224422,-0.269546 h -0.38315 -0.383152 l -0.14395,0.142671 -0.14395,0.142671 v 1.040827 1.040827 l 0.150862,0.3828 0.150862,0.382801 0.267671,0.117608 c 0.147219,0.06468 0.284255,0.118371 0.304523,0.119303 0.02027,9.31e-4 0.169052,-0.05378 0.330629,-0.12159 z"
         id="path6780" />
      <path
         style="fill:#ea3544;fill-opacity:1;stroke-width:0.002;stroke-linejoin:round"
         d="m 17.117464,29.177868 c -0.336353,-0.05776 -0.369075,-0.06817 -0.608553,-0.193635 -0.251913,-0.131977 -0.254551,-0.134234 -0.569187,-0.486983 l -0.316102,-0.354391 -0.113079,-0.337542 -0.113079,-0.337543 v -0.588285 -0.588286 l 0.203596,-0.421641 0.203596,-0.42164 0.352537,-0.303248 0.352538,-0.303248 0.4472,-0.148958 0.4472,-0.148958 0.573334,0.03618 0.573333,0.03618 0.3364,0.160808 0.336399,0.160808 0.307701,0.324019 0.3077,0.32402 0.1299,0.389885 0.1299,0.389886 v 0.565493 0.565493 l -0.242313,0.468161 -0.242313,0.46816 -0.374884,0.28993 -0.374884,0.289929 -0.317337,0.0797 c -0.327617,0.08228 -0.787439,0.152912 -0.969983,0.148988 -0.05728,-0.0012 -0.264113,-0.02971 -0.45962,-0.06328 z m 0.997601,-0.458046 0.160533,-0.01537 0.18861,-0.252267 0.18861,-0.252267 6.08e-4,-0.8944 6.07e-4,-0.8944 L 18.443811,25.93739 18.233588,25.463662 18.036502,25.28379 C 17.840384,25.104805 17.83832,25.103658 17.616336,25.050251 l -0.223079,-0.05367 -0.223896,0.201527 c -0.123143,0.11084 -0.230258,0.217551 -0.238034,0.237137 -0.0078,0.01959 -0.05355,0.259179 -0.101731,0.532428 l -0.08759,0.496817 0.09716,0.569583 0.09716,0.569583 0.180892,0.389867 0.180893,0.389867 0.232297,0.188549 c 0.224567,0.182273 0.23549,0.188127 0.328213,0.1759 0.05275,-0.007 0.168155,-0.01956 0.256449,-0.02802 z"
         id="path6782" />
      <path
         style="fill:#ea3544;fill-opacity:1;stroke-width:0.002;stroke-linejoin:round"
         d="m 20.534532,28.935143 c 0,-0.111581 0.0099,-0.176909 0.02867,-0.188737 0.01577,-0.0099 0.17999,-0.08022 0.364941,-0.156154 l 0.336275,-0.138063 0.609725,-0.67474 c 0.572142,-0.633149 0.609726,-0.680107 0.609726,-0.761813 0,-0.0779 -0.06219,-0.171079 -0.590534,-0.884727 l -0.590533,-0.797654 -0.315292,-0.160534 -0.315291,-0.160533 -4.2e-5,-0.152335 -4.2e-5,-0.152335 0.3956,-0.01374 c 0.21758,-0.0076 0.806257,-0.0202 1.308171,-0.0281 l 0.912572,-0.01437 -0.0067,0.190828 -0.0067,0.190827 -0.177734,0.04378 -0.177733,0.04378 6.15e-4,0.140764 6.14e-4,0.140764 0.323734,0.474083 0.323734,0.474082 0.246746,-0.290568 c 0.223427,-0.263106 0.257109,-0.31519 0.356378,-0.551091 0.09562,-0.227241 0.104971,-0.263132 0.07315,-0.280938 -0.02006,-0.01123 -0.08903,-0.06195 -0.153259,-0.112724 l -0.116783,-0.09231 v -0.182933 -0.182934 h 0.882933 0.882934 l -1.15e-4,0.200667 -1.15e-4,0.200667 -0.429875,0.201733 -0.429875,0.201734 -0.527467,0.571547 c -0.290107,0.314351 -0.526264,0.585965 -0.524795,0.603587 0.0015,0.01762 0.31623,0.456054 0.699467,0.974294 l 0.696795,0.942254 0.298133,0.1004 0.298134,0.100399 0.0067,0.175893 0.0067,0.175893 H 24.468595 23.103097 V 28.926833 28.74788 l 0.217867,-0.05252 0.217866,-0.05252 V 28.5494 c 0,-0.136405 -0.158608,-0.413565 -0.483925,-0.845632 -0.150673,-0.200115 -0.281448,-0.363305 -0.290612,-0.362646 -0.03743,0.0027 -0.506053,0.641612 -0.608284,0.829323 -0.102036,0.187355 -0.109525,0.212163 -0.1032,0.341862 l 0.0068,0.139846 0.160533,0.04995 0.160534,0.04995 0.0067,0.176869 0.0067,0.176869 h -0.929765 -0.929765 z"
         id="path6784" />
      <path
         style="fill:#ea3544;fill-opacity:1;stroke-width:0.002;stroke-linejoin:round"
         d="m 28.221857,29.18515 c -0.423298,-0.08136 -0.355595,-0.05104 -0.946404,-0.423752 l -0.230815,-0.145609 -0.267986,-0.480132 -0.267985,-0.480131 v -0.733062 -0.733062 l 0.160167,-0.30194 c 0.141691,-0.267111 0.191599,-0.335936 0.432655,-0.596645 l 0.272489,-0.294705 0.352811,-0.183488 0.352811,-0.183488 0.571124,-0.04303 0.571124,-0.04303 0.357676,0.09608 0.357677,0.09608 0.307238,0.207274 0.307238,0.207275 0.248416,0.358167 0.248416,0.358167 0.09712,0.570645 0.09712,0.570645 -0.147255,0.515449 c -0.130177,0.455672 -0.156676,0.526045 -0.228502,0.60682 -0.04469,0.05025 -0.204024,0.225938 -0.354083,0.390407 l -0.272834,0.299034 -0.41585,0.175872 c -0.413555,0.1749 -0.417682,0.176071 -0.7477,0.212081 -0.182517,0.01992 -0.362809,0.03979 -0.400649,0.04416 -0.03784,0.0044 -0.242145,-0.02537 -0.45401,-0.06609 z m 1.228076,-0.621251 0.166201,-0.174957 0.109645,-0.495843 0.109645,-0.495844 -0.106859,-0.630666 -0.106859,-0.630667 -0.228707,-0.424267 C 29.26721,25.478308 29.152436,25.275901 29.137946,25.26186 29.123456,25.24782 28.986605,25.17717 28.833832,25.104869 l -0.27777,-0.131463 -0.227622,0.130418 -0.227622,0.130419 -0.107199,0.301773 -0.107198,0.301772 -0.01406,0.596267 -0.01406,0.596267 0.173225,0.557397 0.173225,0.557398 0.281425,0.296754 0.281426,0.296754 0.258065,1.15e-4 0.258066,1.14e-4 0.166201,-0.174956 z"
         id="path6786" />
      <path
         style="fill:#ea3544;fill-opacity:1;stroke-width:0.002;stroke-linejoin:round"
         d="m 31.877768,30.90893 c -0.04221,-0.04493 -0.04993,-0.07589 -0.04413,-0.176965 l 0.007,-0.122505 0.235818,-0.0925 c 0.214662,-0.0842 0.241914,-0.10176 0.303769,-0.195702 l 0.06795,-0.1032 5.94e-4,-2.281867 5.94e-4,-2.281867 -0.08515,-0.234002 -0.08515,-0.234001 -0.224945,-0.08519 -0.224945,-0.08519 v -0.141807 -0.141806 l 0.143334,-0.03637 c 0.09119,-0.02314 0.393634,-0.04956 0.831333,-0.07263 0.3784,-0.01994 0.772801,-0.04262 0.876446,-0.05039 l 0.188445,-0.01413 0.0065,0.266869 0.0065,0.26687 0.3096,-0.240186 0.3096,-0.240186 0.635462,-6.58e-4 0.635462,-6.57e-4 0.323885,0.246533 0.323885,0.246533 0.240622,0.479059 0.240622,0.479059 -0.01604,0.667608 -0.01604,0.667608 -0.182167,0.435734 -0.182168,0.435733 -0.339272,0.332534 -0.339273,0.332533 -0.352891,0.143784 -0.352891,0.143785 -0.516001,-7.23e-4 c -0.380799,-5.34e-4 -0.549049,-0.0096 -0.642133,-0.03458 -0.06937,-0.01862 -0.128713,-0.03398 -0.131867,-0.03413 -0.01071,-5.09e-4 -0.0015,0.58327 0.01364,0.860371 l 0.01503,0.275842 0.09899,0.117304 c 0.0924,0.109499 0.107663,0.118293 0.229333,0.132149 0.256493,0.02921 0.249189,0.02488 0.26595,0.157536 0.0083,0.06556 0.02101,0.152732 0.02828,0.193725 l 0.01322,0.07453 H 33.211752 31.92893 Z m 3.255314,-2.233002 c 0.05565,-0.03523 0.103201,-0.116991 0.226399,-0.389253 l 0.155955,-0.344651 0.01527,-0.501717 0.01527,-0.501718 -0.145967,-0.496422 -0.145968,-0.496421 -0.226134,-0.243179 -0.226134,-0.243179 H 34.44874 34.095698 l -0.158581,0.140939 -0.158582,0.140939 v 1.011428 1.011427 l 0.095,0.286701 c 0.08619,0.260093 0.108296,0.302463 0.238232,0.456552 0.129799,0.153926 0.160097,0.176613 0.323136,0.241964 l 0.179908,0.07211 0.223912,-0.05046 c 0.123152,-0.02775 0.255612,-0.07053 0.294356,-0.09506 z"
         id="path6788" />
    </g>
  </g>
</svg>
