<svg width="93" height="81" fill="none" xmlns="http://www.w3.org/2000/svg"><path d="M58.673 34.645h-3.268a3.126 3.126 0 0 1-3.091 2.71v3.272c3.37 0 6.13-2.633 6.359-5.983ZM58.673 33.775c-.203-3.35-2.99-6.008-6.359-6.008v3.272a3.154 3.154 0 0 1 3.116 2.736h3.243Z" fill="#242424"/><path d="M58.673 43.414c-.203-3.35-2.99-6.009-6.359-6.009v3.273a3.154 3.154 0 0 1 3.116 2.736h3.243ZM58.673 44.283h-3.268a3.126 3.126 0 0 1-3.091 2.71v3.273c3.37 0 6.13-2.633 6.359-5.983ZM35.34 0c-3.318.205-5.953 3.017-5.953 6.417h3.243c0-1.61 1.19-2.94 2.71-3.144V0ZM51.453 27.818c-3.32.23-5.954 3.017-5.954 6.417h3.243c0-1.61 1.19-2.915 2.71-3.145v-3.272ZM36.176 0v3.298c1.52.205 2.686 1.534 2.686 3.12h3.242A6.385 6.385 0 0 0 36.177 0ZM52.238 8.872v3.298c1.52.205 2.685 1.534 2.685 3.12h3.243c.025-3.426-2.61-6.213-5.928-6.418ZM36.151 22.678c3.319-.204 5.954-3.017 5.954-6.417h-3.243c0 1.61-1.19 2.94-2.71 3.145v3.273ZM35.315 22.653V19.38c-1.52-.204-2.685-1.534-2.685-3.119h-3.243c-.025 3.4 2.61 6.187 5.928 6.392ZM22.42.46h-3.217v21.682h3.217V.46ZM32.63 9.639H23.23v3.247h9.399V9.639ZM58.191.46H45.45v3.247H58.19V.46ZM42.105 9.639h-3.243v3.247h3.243V9.639Z" fill="#242424"/><path d="M52.998 8.872h-3.243v3.247h3.243V8.872ZM35.315 27.69c-3.318.204-5.953 3.017-5.953 6.417h3.243c0-1.61 1.19-2.94 2.71-3.144V27.69ZM36.176 27.69v3.298c1.52.205 2.686 1.534 2.686 3.12h3.242c0-3.401-2.634-6.188-5.928-6.418ZM36.151 50.496c3.319-.204 5.954-3.017 5.954-6.417h-3.243c0 1.61-1.19 2.94-2.71 3.144v3.273ZM35.29 50.496v-3.298c-1.52-.205-2.685-1.534-2.685-3.12h-3.243c0 3.401 2.61 6.188 5.928 6.418ZM42.105 35.028h-3.243v8.105h3.243v-8.105ZM48.767 33.34h-3.242v3.247h3.242V33.34ZM48.767 41.522h-3.242v3.247h3.242v-3.247ZM54.062 37.329h-8.664v3.247h8.664v-3.247ZM32.605 35.028h-3.243v8.105h3.243v-8.105ZM48.691 4.679H45.45v7.389h3.242V4.679Z" fill="#242424"/><path d="M51.453 50.368V47.07c-1.52-.204-2.686-1.534-2.686-3.12h-3.242c0 3.401 2.609 6.188 5.928 6.418ZM73.29 34.644h-3.268a3.126 3.126 0 0 1-3.09 2.71v3.273c3.37 0 6.13-2.634 6.358-5.983Z" fill="#242424"/><path d="M73.29 43.414c-.202-3.35-2.989-6.009-6.358-6.009v3.273a3.154 3.154 0 0 1 3.116 2.736h3.242ZM65.209 28.15h-3.243v8.438h3.243V28.15ZM65.209 41.522h-3.243v8.335h3.243v-8.335Z" fill="#242424"/><path d="M68.426 37.329H61.84v3.247h6.586v-3.247ZM81.625 33.34h-3.243v3.247h3.243V33.34ZM91.125 33.34h-3.243v3.247h3.243V33.34ZM91.125 41.394h-3.243v3.247h3.243v-3.247Z" fill="#242424"/><path d="M84.336 27.69c-3.319.23-5.954 3.017-5.954 6.417h3.243c0-1.61 1.19-2.914 2.71-3.144V27.69ZM85.197 27.69v3.298c1.52.205 2.685 1.534 2.685 3.12h3.243c0-3.401-2.61-6.188-5.928-6.418ZM76.102 27.639c-3.318.204-5.953 3.017-5.953 6.417h3.243c0-1.61 1.19-2.915 2.71-3.145V27.64ZM76.102 50.496c-3.318-.204-5.953-3.017-5.953-6.417h3.243c0 1.61 1.19 2.94 2.71 3.144v3.273ZM91.125 43.823h-3.217v6.008h3.217v-6.008ZM81.625 41.394h-3.243v3.247h3.243v-3.247Z" fill="#242424"/><path d="M81.625 43.823h-3.217v6.008h3.217v-6.008ZM91.125 37.329H78.382v3.247h12.743v-3.247ZM6.004 5.625H2.761v3.247h3.243V5.625ZM15.504 5.625h-3.242v3.247h3.242V5.625ZM32.605 5.625h-3.243v3.247h3.243V5.625ZM42.13 5.625h-3.243v3.247h3.243V5.625ZM32.605 13.704h-3.243v3.247h3.243v-3.247ZM42.13 13.704h-3.243v3.247h3.243v-3.247ZM52.238 22.678c3.319-.204 5.953-3.017 5.953-6.417H54.95c0 1.61-1.191 2.94-2.711 3.145v3.273ZM51.377 22.653V19.38c-1.52-.204-2.686-1.534-2.686-3.119H45.45c0 3.4 2.609 6.187 5.928 6.392Z" fill="#242424"/><path d="M48.691 12.937H45.45v4.014h3.242v-4.014ZM6.004 9.946H2.761v7.005h3.243V9.946ZM8.715 0C5.396.23 2.76 3.017 2.76 6.417h3.243c0-1.61 1.19-2.914 2.71-3.144V0ZM9.576 0v3.298c1.52.205 2.685 1.534 2.685 3.12h3.243c0-3.401-2.61-6.188-5.928-6.418Z" fill="#242424"/><path d="M.026 22.525c3.318-.204 5.953-2.991 5.953-6.417H2.736c0 1.61-1.19 2.914-2.71 3.145v3.272ZM15.504 9.946h-3.217v12.196h3.217V9.946ZM65.133 11.224l-3.217 4.321V.46h3.217v10.764ZM74.81 22.193h-3.217V11.71l3.217-4.116v14.599ZM74.81.025 61.917 17.54v5.242L74.81 5.395V.025ZM15.378 39.195l-3.218 4.04v-4.244l3.218-4.347v4.551ZM25.688 49.882h-3.217V38.888l3.217-3.86v14.854ZM25.689 27.715 12.16 45.23v5.242L25.69 33.085v-5.37ZM15.377 27.715 0 45.23v5.242l15.377-17.386v-5.37ZM70.15 55.073c-4.637.307-8.31 4.193-8.31 8.948h4.534c0-2.224 1.647-4.09 3.8-4.372v-4.576h-.025ZM71.34 55.073v4.576c2.128.307 3.75 2.148 3.75 4.372h4.534c0-4.755-3.674-8.641-8.284-8.948Z" fill="#242424"/><path d="M83.474 55.073c-4.636.307-8.31 4.193-8.31 8.948H79.7c0-2.224 1.646-4.09 3.8-4.372v-4.576h-.026ZM84.665 55.073v4.576c2.128.307 3.75 2.148 3.75 4.372h4.534c0-4.755-3.648-8.641-8.284-8.948ZM76.837 75.578c-2.23-1.099-9.905-5.292-10.26-10.329H61.84c.354 7.517 12.16 13.73 14.972 15.11v-4.78h.025ZM88.288 65.249c-.33 5.036-8.031 9.23-10.26 10.329v4.781C80.84 78.979 92.67 72.765 93 65.249h-4.712Z" fill="#242424"/></svg>