<?xml version="1.0" encoding="UTF-8" standalone="no"?>
<svg
   xmlns:dc="http://purl.org/dc/elements/1.1/"
   xmlns:cc="http://creativecommons.org/ns#"
   xmlns:rdf="http://www.w3.org/1999/02/22-rdf-syntax-ns#"
   xmlns:svg="http://www.w3.org/2000/svg"
   xmlns="http://www.w3.org/2000/svg"
   xmlns:sodipodi="http://sodipodi.sourceforge.net/DTD/sodipodi-0.dtd"
   xmlns:inkscape="http://www.inkscape.org/namespaces/inkscape"
   width="88px"
   height="31px"
   viewBox="0 0 88 31"
   version="1.1"
   id="SVGRoot"
   sodipodi:docname="mosbrew_b.svg"
   inkscape:version="1.0.1 (3bc2e813f5, 2020-09-07)">
  <style
     id="style11079"></style>
  <defs
     id="defs8947" />
  <sodipodi:namedview
     id="base"
     pagecolor="#ffffff"
     bordercolor="#666666"
     borderopacity="1.0"
     inkscape:pageopacity="0.0"
     inkscape:pageshadow="2"
     inkscape:zoom="7.7865429"
     inkscape:cx="50.772989"
     inkscape:cy="30.612664"
     inkscape:document-units="px"
     inkscape:current-layer="layer1"
     inkscape:document-rotation="0"
     showgrid="false"
     inkscape:window-width="1920"
     inkscape:window-height="1009"
     inkscape:window-x="-8"
     inkscape:window-y="-8"
     inkscape:window-maximized="1"
     inkscape:snap-page="true" />
  <metadata
     id="metadata8950">
    <rdf:RDF>
      <cc:Work
         rdf:about="">
        <dc:format>image/svg+xml</dc:format>
        <dc:type
           rdf:resource="http://purl.org/dc/dcmitype/StillImage" />
        <dc:title></dc:title>
      </cc:Work>
    </rdf:RDF>
  </metadata>
  <g
     inkscape:label="Слой 1"
     inkscape:groupmode="layer"
     id="layer1">
    <path
       style="fill:#282828;fill-opacity:1;stroke-width:0.3;stroke:#282828;stroke-opacity:1;stroke-miterlimit:4;stroke-dasharray:none"
       d="m 81.763779,26.83163 c -0.213715,-0.07678 -0.436639,-0.254098 -0.525774,-0.418201 -0.06626,-0.121991 -0.07566,-0.337402 -0.0946,-2.168235 l -0.02103,-2.032787 -0.347036,-0.0123 -0.347036,-0.0123 V 22.000658 21.81351 l 0.347036,-0.0123 0.347036,-0.0123 0.01161,-0.645834 0.01161,-0.645833 h 0.187101 0.187101 l 0.01161,0.645833 0.01161,0.645834 0.473232,0.01197 0.473231,0.01197 v 0.1878 0.1878 l -0.473231,0.01197 -0.473232,0.01197 -0.01094,1.957535 -0.01093,1.957534 0.116095,0.129964 c 0.06386,0.07148 0.191816,0.155878 0.284359,0.187551 0.160314,0.05487 0.168866,0.06678 0.181082,0.252324 0.0118,0.179258 0.0051,0.19459 -0.08413,0.192879 -0.05332,-0.001 -0.167974,-0.02738 -0.25478,-0.05856 z"
       id="path11115"
       sodipodi:nodetypes="csscccccccccccccccccccccsssccc" />
    <path
       style="fill:#db2a47;fill-opacity:1;stroke-width:0.5;stroke:#db2a47;stroke-opacity:1;stroke-miterlimit:4;stroke-dasharray:none"
       d="m 4.3332803,17.670422 c 3.365e-4,-0.08735 0.065667,-1.76916 0.1452139,-3.737364 C 4.5580412,11.964855 4.6811234,8.8585017 4.7520105,7.030052 4.8228972,5.2016023 4.8915625,3.5864894 4.9045997,3.4409122 L 4.9283037,3.1762264 H 5.9256609 6.9230181 L 7.3766005,6.003071 c 0.2494703,1.5547646 0.7053692,4.395087 1.0131092,6.311827 0.3077396,1.91674 0.5713791,3.496914 0.5858651,3.511498 0.014486,0.01458 0.032815,0.01858 0.040731,0.0089 0.00792,-0.0097 0.1497863,-0.846642 0.3152684,-1.859859 C 9.4970558,12.96222 9.860455,10.742035 10.139128,9.0416933 10.417801,7.3413516 10.73951,5.3689128 10.854038,4.658496 10.968565,3.9480793 11.072282,3.3239501 11.084518,3.2715423 l 0.02225,-0.095287 h 0.983951 0.98395 l 0.02519,0.3493853 c 0.01385,0.1921619 0.138031,3.3413939 0.275951,6.9982934 0.13792,3.656899 0.261233,6.796603 0.274029,6.977118 l 0.02327,0.328211 h -0.438891 -0.43889 l -0.02355,-0.349386 C 12.758828,17.287716 12.737928,16.85416 12.725338,16.516421 12.686738,15.48097 12.3698,7.5248728 12.303579,5.9289879 12.269269,5.1021094 12.241129,4.3350499 12.241059,4.2244112 l -1.4e-4,-0.2011902 h -0.228015 c -0.214848,0 -0.22941,0.00673 -0.252157,0.1164618 -0.01328,0.064054 -0.223856,1.2789619 -0.467951,2.6997954 -0.244095,1.4208336 -0.755289,4.3933048 -1.135988,6.6054918 -0.3806987,2.212187 -0.6921796,4.055988 -0.6921796,4.097336 0,0.06742 -0.047435,0.07518 -0.4593726,0.07518 H 8.5458828 L 8.5223201,17.501023 C 8.5093607,17.436969 8.158255,15.383537 7.7420848,12.93784 7.3259151,10.492143 6.8144597,7.4907045 6.6055173,6.2679767 6.3965753,5.0452493 6.2256227,4.0399723 6.2256227,4.0340283 c 0,-0.00594 -0.1041109,-0.010807 -0.2313575,-0.010807 H 5.7629076 l -3.53e-5,0.1376367 c -1.98e-5,0.0757 -0.1229678,3.0915304 -0.2732177,6.701845 -0.1502504,3.610314 -0.2732745,6.654731 -0.2733873,6.76537 l -2.048e-4,0.201161 H 4.7743799 4.3326973 l 5.847e-4,-0.158812 z"
       id="path11115-7"
       sodipodi:nodetypes="sssscccssscssscccccssccccssccsssssscssssscsssccccs" />
    <path
       style="fill:#db2a47;fill-opacity:1;stroke-width:0.5;stroke:#db2a47;stroke-opacity:1;stroke-miterlimit:4;stroke-dasharray:none"
       d="M 21.089155,17.955001 C 20.159883,17.78699 19.307649,17.038685 19.010293,16.129656 l -0.10207,-0.312035 V 10.523905 5.2301884 l 0.128716,-0.3618433 c 0.07079,-0.1990137 0.199621,-0.46939 0.286284,-0.6008364 0.327176,-0.4962485 0.914768,-0.9321511 1.498958,-1.1119961 0.360772,-0.1110648 1.284204,-0.1351839 1.72649,-0.045094 1.037784,0.2113874 1.850579,0.9859269 2.079489,1.9816154 0.05789,0.2517992 0.06427,0.9039677 0.05429,5.547815 l -0.01132,5.262472 -0.113377,0.312577 c -0.217296,0.599075 -0.632633,1.094381 -1.170807,1.396235 -0.51274,0.287589 -0.769718,0.351979 -1.471074,0.368603 -0.335468,0.008 -0.707491,-0.0032 -0.826716,-0.02473 z m 1.297877,-0.850355 c 0.32626,-0.06878 0.767549,-0.315752 0.962412,-0.538626 0.09232,-0.105594 0.228712,-0.31718 0.303089,-0.470193 l 0.135231,-0.278206 V 10.523905 5.2301884 L 23.653741,4.9549152 C 23.399853,4.433446 22.895379,4.0428536 22.341296,3.9387452 22.050697,3.8841436 21.527387,3.8841914 21.241134,3.9388468 20.676617,4.0466299 20.180891,4.4363457 19.934146,4.9663365 l -0.142558,0.3062016 -0.01154,5.1243179 c -0.0077,3.397842 0.003,5.193143 0.03177,5.328598 0.137553,0.648805 0.649855,1.180651 1.30922,1.359165 0.273567,0.07406 0.958283,0.0849 1.265995,0.02003 z"
       id="path11115-73"
       sodipodi:nodetypes="ssccccssssccsscssssscccsssscccsss" />
    <path
       style="fill:#db2a47;fill-opacity:1;stroke-width:0.5;stroke:#db2a47;stroke-opacity:1;stroke-miterlimit:4;stroke-dasharray:none"
       d="M 31.855922,17.951998 C 30.953999,17.800475 30.096322,17.0812 29.77659,16.208204 29.6833,15.95348 29.67959,15.89052 29.665656,14.324793 l -0.01441,-1.619877 h 0.443979 0.443978 v 1.496786 c 0,1.657537 0.01302,1.754644 0.289476,2.15918 0.357227,0.522725 0.934075,0.790756 1.701845,0.790756 0.624332,0 1.08868,-0.182527 1.45419,-0.571615 0.461264,-0.49102 0.524999,-0.776285 0.49826,-2.2301 -0.0181,-0.984204 -0.0288,-1.107692 -0.128882,-1.487822 C 34.146877,12.075085 33.67935,11.360576 33.029238,10.837368 32.843958,10.688256 32.384167,10.376226 32.007481,10.14397 30.920216,9.473585 30.465787,9.0903873 30.120817,8.553039 29.737071,7.9552916 29.64538,7.4690163 29.663714,6.1288307 c 0.01292,-0.9447336 0.0179,-0.9956143 0.12668,-1.2959183 0.321866,-0.8885502 1.077401,-1.5366416 2.009428,-1.7236718 0.437412,-0.087775 1.283505,-0.063365 1.641862,0.047368 1.092081,0.3374576 1.740607,1.1146969 1.915705,2.2959156 l 0.02668,0.1799864 h -0.439907 -0.439907 l -0.05145,-0.263274 C 34.311343,4.6453238 33.72788,4.0688105 33.000001,3.9337363 c -0.362956,-0.067355 -0.999855,-0.02569 -1.285037,0.084064 -0.555516,0.2137949 -0.941282,0.6062492 -1.096368,1.1153769 -0.07866,0.2582181 -0.08509,0.3683164 -0.07056,1.2069673 0.01797,1.036569 0.04336,1.1504102 0.37009,1.6593527 0.370645,0.5773408 0.817855,0.9426416 2.125914,1.7365394 0.905049,0.5493004 1.431229,1.0704524 1.799597,1.7824004 0.400415,0.773886 0.493522,1.276561 0.521765,2.816944 0.0245,1.336244 -0.01554,1.662094 -0.268008,2.181011 -0.332405,0.683219 -1.116345,1.275189 -1.880255,1.419818 -0.355792,0.06736 -1.009128,0.07494 -1.36122,0.01579 z"
       id="path11115-5"
       sodipodi:nodetypes="ssscccsssssssssssssscccsssscssssssss" />
    <path
       style="fill:#db2a47;fill-opacity:1;stroke-width:0.5;stroke:#db2a47;stroke-opacity:1;stroke-miterlimit:4;stroke-dasharray:none"
       d="M 40.592736,10.50273 V 3.1762264 h 1.909928 c 1.901696,0 1.911207,4.354e-4 2.206423,0.1009904 0.755151,0.2572142 1.348406,0.9010172 1.501839,1.6297978 0.07108,0.3375901 0.08606,3.1159218 0.01878,3.483036 -0.02299,0.125464 -0.117942,0.3840977 -0.211003,0.5747409 -0.201659,0.4131174 -0.588956,0.8234245 -0.970515,1.0281685 -0.136926,0.073474 -0.247809,0.146765 -0.246409,0.162868 0.0014,0.0161 0.148107,0.0998 0.326004,0.185995 0.575492,0.278827 1.039511,0.855042 1.20563,1.497139 0.05299,0.204822 0.06429,0.577837 0.06429,2.122084 0,1.204209 -0.01661,1.95376 -0.04649,2.098002 -0.184283,0.889673 -1.001274,1.620605 -1.931785,1.728301 -0.195985,0.02268 -1.137169,0.04139 -2.091519,0.04156 l -1.735181,3.22e-4 z m 4.026656,6.384174 c 0.413684,-0.161898 0.725491,-0.482917 0.833972,-0.858614 0.05328,-0.184511 0.0616,-0.525921 0.05172,-2.12199 l -0.01177,-1.902101 -0.138331,-0.28281 C 45.177199,11.357933 44.828821,11.036281 44.33462,10.779308 L 43.965605,10.58743 h -1.24475 -1.244754 v 3.20072 3.20072 l 1.482791,-0.01621 c 1.248014,-0.01364 1.510929,-0.02722 1.6605,-0.08576 z M 44.31344,9.5286862 c 0.466472,-0.2666716 0.749889,-0.5550271 0.93153,-0.9477675 l 0.100291,-0.2168501 4.21e-4,-1.6635873 C 45.346145,4.8443442 45.35449,4.9054519 45.045308,4.5019818 44.917776,4.3355554 44.801739,4.2421476 44.595482,4.1398736 l -0.27797,-0.1378274 h -1.410187 -1.410192 l -0.01089,2.8162572 c -0.006,1.5489414 -0.0015,2.8408933 0.0099,2.8710039 0.01649,0.043435 0.275254,0.052186 1.252368,0.04235 L 43.980079,9.71926 Z"
       id="path11115-75"
       sodipodi:nodetypes="ccssssssscsscscccssscsscccccssssscssscccccscs" />
    <path
       style="fill:#db2a47;fill-opacity:1;stroke-width:0.5;stroke:#db2a47;stroke-opacity:1;stroke-miterlimit:4;stroke-dasharray:none"
       d="M 51.739963,10.50273 V 3.1762264 h 1.888496 c 1.758048,0 1.906958,0.00574 2.155832,0.083161 0.712535,0.2216507 1.300486,0.7953447 1.507862,1.4713025 0.07864,0.2563221 0.08452,0.3925506 0.08452,1.9573381 0,1.8931889 -0.0021,1.9098048 -0.307878,2.4266325 -0.204255,0.3452405 -0.622448,0.7516239 -0.915873,0.8900065 -0.111657,0.05266 -0.202719,0.114798 -0.202366,0.13809 4.21e-4,0.02329 0.134776,0.10683 0.29872,0.185638 0.662789,0.318607 1.221598,1.112596 1.255313,1.783625 0.0053,0.104815 0.007,1.434068 0.0039,2.953894 l -0.0056,2.76332 H 57.083607 56.66435 L 56.65244,14.938865 56.64054,12.048495 56.527466,11.8056 C 56.311841,11.342402 56.023615,11.068282 55.423445,10.755606 L 55.100638,10.58743 h -1.238655 -1.238655 v 3.620902 3.620902 h -0.441682 -0.441683 z m 3.65102,-0.9530565 c 0.424987,-0.2141876 0.76494,-0.5393103 0.966734,-0.9245493 l 0.11456,-0.2187059 V 6.712429 c 0,-1.6814063 -7.15e-4,-1.6954558 -0.09661,-1.8914385 C 56.229246,4.5217604 55.97172,4.2536917 55.703093,4.1208859 L 55.462716,4.0020462 54.043022,3.9884531 52.623328,3.97486 v 2.8827875 2.8827874 h 1.194575 1.194579 z"
       id="path11115-0"
       sodipodi:nodetypes="ccsssssscscccccccssccccccccsscssscccccccs" />
    <path
       style="fill:#db2a47;fill-opacity:1;stroke-width:0.5;stroke:#db2a47;stroke-opacity:1;stroke-miterlimit:4;stroke-dasharray:none"
       d="M 62.676866,10.50273 V 3.1762264 h 2.313575 2.313576 V 3.5997237 4.023221 h -1.871893 -1.871893 v 2.6468583 2.6468583 h 1.619503 1.619502 v 0.4234973 0.4234971 h -1.619502 -1.619503 v 3.409154 3.409153 h 1.871893 1.871893 v 0.423497 0.423498 h -2.313576 -2.313575 z"
       id="path11115-1"
       sodipodi:nodetypes="ccccccccccccccccccccccccc" />
    <path
       style="fill:#db2a47;fill-opacity:1;stroke-width:0.5;stroke:#db2a47;stroke-opacity:1;stroke-miterlimit:4;stroke-dasharray:none"
       d="M 74.108596,17.954898 C 73.314299,17.820243 72.513945,17.224293 72.167165,16.50929 71.87072,15.898069 71.889103,16.365709 71.889103,9.4350891 V 3.1762264 h 0.441009 0.441014 l 0.01119,6.3206975 0.01119,6.3206971 0.130839,0.275274 c 0.185213,0.389676 0.426502,0.645242 0.774842,0.820689 0.381387,0.192091 0.680986,0.250992 1.173732,0.230752 0.340377,-0.01398 0.444707,-0.0365 0.676687,-0.146055 0.664412,-0.313777 1.247568,-1.104075 1.474841,-1.998711 0.07764,-0.305639 0.08072,-0.537293 0.08072,-6.0705543 V 3.1762264 h 0.440959 0.440963 l 0.01124,5.8548505 0.01124,5.8548501 0.13271,0.373514 c 0.282215,0.794284 0.822199,1.465117 1.398359,1.737209 0.238084,0.112436 0.33724,0.133599 0.694683,0.148273 0.506387,0.02079 0.79181,-0.03686 1.172877,-0.236885 0.341131,-0.179062 0.580859,-0.435792 0.761162,-0.815143 l 0.13084,-0.275274 0.01105,-6.3206971 0.01106,-6.3206975 h 0.441809 0.441809 l -0.01118,6.3630473 -0.01118,6.3630473 -0.113378,0.312577 c -0.225536,0.621798 -0.670201,1.137248 -1.235277,1.431929 -0.480307,0.250473 -0.722677,0.312606 -1.322473,0.339022 -0.90969,0.04006 -1.543921,-0.151392 -2.112219,-0.637615 -0.312219,-0.267124 -0.665654,-0.767818 -0.753544,-1.067503 -0.0303,-0.10331 -0.07474,-0.187836 -0.09876,-0.187836 -0.02402,0 -0.06875,0.08099 -0.0994,0.179986 -0.09207,0.297332 -0.341084,0.671148 -0.649379,0.974813 -0.351175,0.345906 -0.825248,0.594699 -1.311776,0.688417 -0.342582,0.06599 -1.043923,0.07554 -1.378752,0.01878 z"
       id="path11115-6"
       sodipodi:nodetypes="ssscccccsssssscccccssssscccccccsssssssssss" />
    <path
       style="fill:#282828;fill-opacity:1;stroke-width:0.3;stroke:#282828;stroke-opacity:1;stroke-miterlimit:4;stroke-dasharray:none"
       d="M 4.8164449,26.792921 C 4.5556814,26.666186 4.3662912,26.469113 4.2402056,26.193306 L 4.1434047,25.981557 4.1313007,22.964139 4.1191966,19.94672 h 0.2119127 0.211913 v 1.185793 c 0,0.652186 0.014197,1.185747 0.031549,1.185692 0.017352,-4.3e-5 0.1451243,-0.07863 0.2839388,-0.17461 0.5682369,-0.392892 0.990673,-0.506894 1.3375722,-0.36097 0.1781268,0.07493 0.3924548,0.324194 0.4508945,0.524391 0.031762,0.108806 0.042393,0.724931 0.033446,1.938202 -0.012603,1.708908 -0.016621,1.786314 -0.1024098,1.973048 -0.1077718,0.234583 -0.3232288,0.45965 -0.5457464,0.570088 -0.1212768,0.06019 -0.2741516,0.0848 -0.5848467,0.09414 -0.3736041,0.01123 -0.4441728,0.0012 -0.6309751,-0.08957 z m 1.0603024,-0.381434 c 0.073811,-0.03843 0.1872356,-0.139849 0.2520548,-0.22538 l 0.1178531,-0.155512 0.01183,-1.820685 0.01183,-1.820685 -0.1123877,-0.118102 C 6.0200649,22.126252 5.8631515,22.08752 5.6491457,22.145536 c -0.207653,0.05629 -0.6259462,0.310992 -0.8961748,0.545679 l -0.2099486,0.182336 v 1.50887 c 0,1.443011 0.00383,1.516835 0.087741,1.691344 0.091175,0.189617 0.2547612,0.334137 0.4503282,0.397841 0.1698219,0.05532 0.6425334,0.0196 0.7956563,-0.06012 z"
       id="path11115-56"
       sodipodi:nodetypes="sscccccscssssssssssscccssscsssss" />
    <path
       style="fill:#282828;fill-opacity:1;stroke-width:0.3;stroke:#282828;stroke-opacity:1;stroke-miterlimit:4;stroke-dasharray:none"
       d="m 9.2122384,24.308743 v -2.498634 h 0.1892925 0.1892926 v 0.254098 c 0,0.139754 0.018745,0.254098 0.041656,0.254098 0.022911,0 0.1696129,-0.08859 0.3260038,-0.19687 0.4078237,-0.282359 0.6834367,-0.396026 0.9602627,-0.396026 0.312652,0 0.534905,0.118678 0.693369,0.37024 0.121887,0.193498 0.124024,0.206959 0.124024,0.781494 v 0.584605 h -0.189293 -0.189292 l -1.68e-4,-0.497609 c -1.69e-4,-0.565729 -0.05415,-0.715086 -0.294635,-0.815373 -0.248934,-0.10381 -0.657954,0.07187 -1.2300648,0.528342 l -0.2418738,0.192983 v 1.968643 1.968643 H 9.40152 9.2122275 v -2.498634 z"
       id="path11115-54"
       sodipodi:nodetypes="ccccssssssccccssccccccc" />
    <path
       style="fill:#282828;fill-opacity:1;stroke-width:0.3;stroke:#282828;stroke-opacity:1;stroke-miterlimit:4;stroke-dasharray:none"
       d="m 14.491091,26.792499 c -0.236846,-0.11104 -0.456494,-0.339995 -0.572181,-0.596424 -0.07143,-0.158323 -0.07767,-0.310093 -0.07767,-1.887332 0,-1.919155 -0.0049,-1.88402 0.309807,-2.234688 0.228957,-0.255144 0.512918,-0.361627 0.96044,-0.360159 0.565957,0.0019 0.886574,0.188673 1.137857,0.663002 0.08278,0.156266 0.09383,0.249957 0.106616,0.904129 l 0.01426,0.729799 -1.065605,0.01132 -1.065605,0.01132 v 0.977757 0.977758 l 0.114724,0.166573 c 0.151935,0.220605 0.324472,0.317031 0.614119,0.343215 0.329123,0.02975 0.581594,-0.04787 0.768837,-0.23638 0.187315,-0.188582 0.247474,-0.387862 0.247783,-0.820795 l 2.35e-4,-0.32821 h 0.193833 0.193832 l -0.01526,0.476434 c -0.01409,0.439843 -0.02527,0.494324 -0.145554,0.709358 -0.146423,0.261757 -0.403904,0.483148 -0.638048,0.548615 -0.08617,0.02409 -0.31758,0.04373 -0.514234,0.04363 -0.285994,-1.27e-4 -0.399707,-0.01994 -0.568184,-0.09893 z m 1.484734,-3.553029 c 0.01551,-0.472728 -0.04205,-0.685955 -0.238561,-0.883797 -0.187847,-0.189118 -0.439911,-0.266748 -0.769414,-0.236961 -0.28959,0.02618 -0.462148,0.122591 -0.614119,0.34312 -0.106501,0.154545 -0.115732,0.202479 -0.128783,0.668766 l -0.01406,0.502289 0.876392,-0.01146 0.876391,-0.01146 z"
       id="path11115-4"
       sodipodi:nodetypes="cssccsscccccsssscccssscccssssscccs" />
    <path
       style="fill:#282828;fill-opacity:1;stroke-width:0.3;stroke:#282828;stroke-opacity:1;stroke-miterlimit:4;stroke-dasharray:none"
       d="m 19.317087,26.782909 c -0.23499,-0.117893 -0.380849,-0.26812 -0.526553,-0.542321 -0.09145,-0.172091 -0.09279,-0.201678 -0.104631,-2.302405 l -0.01199,-2.128074 h 0.190771 0.190772 v 1.974936 c 0,1.376306 0.0148,2.024661 0.04882,2.138983 0.06923,0.232621 0.301645,0.490351 0.489585,0.542902 0.513,0.143442 0.978772,-0.05092 1.204763,-0.502735 0.175756,-0.351382 0.191823,-0.552294 0.191823,-2.398657 v -1.755429 h 0.189293 0.189292 l 7.32e-4,1.725751 c 8.04e-4,1.897928 0.02557,2.154511 0.241915,2.506818 0.186944,0.304422 0.407845,0.434686 0.774845,0.456922 0.416063,0.02521 0.633256,-0.0858 0.80123,-0.409517 l 0.116269,-0.224072 V 23.83806 21.810109 h 0.212864 0.212864 l -0.01483,2.064549 c -0.01655,2.305292 -0.01367,2.28127 -0.3162,2.637096 -0.229936,0.270446 -0.498675,0.379456 -0.936003,0.379672 -0.196654,8.5e-5 -0.428059,-0.01954 -0.514233,-0.04363 -0.242773,-0.06788 -0.500689,-0.291062 -0.620255,-0.536726 -0.05854,-0.120268 -0.120307,-0.219787 -0.137269,-0.221154 -0.01696,-0.0014 -0.07755,0.09032 -0.134644,0.203749 -0.213144,0.423466 -0.536743,0.596133 -1.119756,0.597482 -0.348682,8.05e-4 -0.430676,-0.01352 -0.619472,-0.108237 z"
       id="path11115-41"
       sodipodi:nodetypes="ssscccssssscccssssccccccsccscssss" />
    <path
       style="fill:#282828;fill-opacity:1;stroke-width:0.3;stroke:#282828;stroke-opacity:1;stroke-miterlimit:4;stroke-dasharray:none"
       d="M 26.248567,23.377049 V 19.94672 h 0.189293 0.189292 v 1.185793 c 0,0.722515 0.01565,1.185792 0.04005,1.185792 0.02203,0 0.161483,-0.08546 0.309901,-0.189916 0.411696,-0.289744 0.681451,-0.402082 0.96667,-0.402566 0.270407,-4.57e-4 0.416198,0.05949 0.582019,0.239316 0.255188,0.276745 0.246676,0.186447 0.246676,2.616774 v 2.225464 h -0.211323 -0.211322 l 0.0031,-2.20042 c 0.0028,-1.967248 -0.0042,-2.2116 -0.06555,-2.305921 -0.08523,-0.130956 -0.312396,-0.210411 -0.493083,-0.172463 -0.191856,0.0403 -0.596116,0.274098 -0.893736,0.516892 l -0.25239,0.205896 -0.01093,1.978008 -0.01093,1.978008 h -0.188876 -0.188877 v -3.430328 z"
       id="path11115-49"
       sodipodi:nodetypes="ccccsssssscccccssccccccc" />
    <path
       style="fill:#282828;fill-opacity:1;stroke-width:0.3;stroke:#282828;stroke-opacity:1;stroke-miterlimit:4;stroke-dasharray:none"
       d="m 31.85246,26.782909 c -0.23499,-0.117893 -0.38085,-0.26812 -0.526554,-0.542321 -0.0903,-0.169928 -0.09296,-0.216581 -0.105334,-1.847146 -0.0088,-1.158897 0.002,-1.726142 0.03524,-1.846397 0.07552,-0.273474 0.324309,-0.56963 0.596079,-0.709559 0.208609,-0.107408 0.283754,-0.122569 0.615299,-0.124134 0.327896,-0.0016 0.408538,0.01342 0.611903,0.113592 0.276392,0.136142 0.500738,0.383388 0.59167,0.652067 0.09697,0.286511 0.09697,3.372953 0,3.659463 -0.08892,0.262734 -0.31125,0.512194 -0.573953,0.64399 -0.189452,0.09505 -0.272186,0.109612 -0.622616,0.109612 -0.350006,0 -0.433275,-0.01462 -0.621729,-0.109167 z m 1.160415,-0.427762 c 0.08546,-0.06842 0.197977,-0.208328 0.250033,-0.310906 0.0931,-0.183459 0.09463,-0.211776 0.09372,-1.733884 -10e-4,-1.732907 -0.0043,-1.754444 -0.304365,-2.019705 -0.273959,-0.242167 -0.856143,-0.244163 -1.145631,-0.0039 -0.310127,0.257363 -0.313963,0.282067 -0.313963,2.022018 0,1.413411 0.0067,1.56027 0.07766,1.715165 0.160733,0.350616 0.442661,0.498351 0.900865,0.472065 0.239554,-0.01374 0.311665,-0.03673 0.441682,-0.140825 z"
       id="path11115-9"
       sodipodi:nodetypes="ssscscssssssscscccscscc" />
    <path
       style="fill:#282828;fill-opacity:1;stroke-width:0.3;stroke:#282828;stroke-opacity:1;stroke-miterlimit:4;stroke-dasharray:none"
       d="m 36.659657,26.832052 c -0.165916,-0.07456 -0.337312,-0.261924 -0.418418,-0.457399 -0.05622,-0.135501 -0.06533,-0.46466 -0.06533,-2.360998 v -2.203546 h 0.210325 0.210325 v 2.217586 2.217585 l 0.10823,0.108963 c 0.212782,0.214223 0.483366,0.189319 0.934858,-0.08604 0.143924,-0.08778 0.356157,-0.241647 0.471628,-0.341932 l 0.209949,-0.182335 V 23.777023 21.81011 h 0.210325 0.210325 v 2.498634 2.498634 H 38.53155 38.321225 v -0.258629 c 0,-0.300423 0.0048,-0.299965 -0.381127,-0.03608 -0.532262,0.363899 -0.949688,0.468019 -1.280441,0.319386 z"
       id="path11115-94"
       sodipodi:nodetypes="ssscccccssscccccccccscss" />
    <path
       style="fill:#282828;fill-opacity:1;stroke-width:0.3;stroke:#282828;stroke-opacity:1;stroke-miterlimit:4;stroke-dasharray:none"
       d="m 41.789986,26.791892 c -0.246332,-0.115484 -0.526572,-0.415956 -0.604633,-0.648286 -0.02995,-0.08913 -0.06424,-0.395504 -0.07622,-0.680835 l -0.02177,-0.518784 h 0.215404 0.215403 v 0.499905 c 0,0.480547 0.0048,0.507517 0.123797,0.696435 0.148394,0.235578 0.314636,0.330297 0.629675,0.358773 0.629646,0.05691 0.971193,-0.25631 0.971193,-0.890651 0,-0.276471 -0.01389,-0.332212 -0.119107,-0.478122 -0.15408,-0.213655 -0.390245,-0.405965 -0.933818,-0.760409 -0.48035,-0.313217 -0.861165,-0.672113 -0.989406,-0.932454 -0.104947,-0.213053 -0.105604,-0.764338 -0.0012,-1.005557 0.189153,-0.43702 0.624744,-0.712945 1.136819,-0.720119 0.455387,-0.0064 0.675139,0.07419 0.955002,0.350171 0.249651,0.246187 0.372359,0.521601 0.372359,0.835752 0,0.140412 0,0.140538 -0.210325,0.140538 h -0.210325 v -0.171086 c 0,-0.484585 -0.408624,-0.79963 -0.971193,-0.748781 -0.31504,0.02848 -0.481282,0.123195 -0.629676,0.358773 -0.10287,0.163306 -0.123798,0.241112 -0.123798,0.460262 0,0.225651 0.0167,0.283878 0.115679,0.403255 0.200513,0.241844 0.353435,0.366865 0.900201,0.735957 0.518712,0.350155 0.888022,0.695026 1.036339,0.967764 0.115153,0.211748 0.101663,0.919046 -0.02236,1.172403 -0.126889,0.259218 -0.324527,0.455761 -0.578616,0.57541 -0.30201,0.142216 -0.875727,0.142063 -1.179425,-2.96e-4 z"
       id="path11115-944"
       sodipodi:nodetypes="csccccsssssssscssscssssssssscc" />
    <path
       style="fill:#282828;fill-opacity:1;stroke-width:0.3;stroke:#282828;stroke-opacity:1;stroke-miterlimit:4;stroke-dasharray:none"
       d="m 46.629064,26.792892 c -0.260765,-0.126734 -0.450154,-0.323808 -0.57624,-0.599615 -0.09577,-0.209504 -0.0968,-0.229261 -0.0968,-1.863388 0,-1.864271 0.0052,-1.900781 0.323005,-2.247843 0.24147,-0.263733 0.519843,-0.369655 0.967646,-0.36819 0.423141,0.0014 0.656917,0.09044 0.905635,0.345002 0.281932,0.288557 0.325251,0.446328 0.341374,1.243315 l 0.01434,0.708623 -1.065675,0.01132 -1.065675,0.01132 -0.01135,0.92717 c -0.0107,0.873764 -0.0062,0.937958 0.07871,1.114474 0.05457,0.11348 0.15731,0.232107 0.260672,0.300973 0.15,0.09994 0.211634,0.113596 0.510203,0.113076 0.393392,-6.86e-4 0.545343,-0.06405 0.726517,-0.302947 0.109516,-0.144409 0.118859,-0.18786 0.132093,-0.614116 l 0.01424,-0.45871 h 0.211254 0.211255 l -0.01711,0.455259 c -0.01954,0.519986 -0.09772,0.74925 -0.337938,0.991097 -0.242711,0.244353 -0.420574,0.30848 -0.895172,0.32275 -0.373605,0.01123 -0.444173,0.0012 -0.630976,-0.08957 z m 1.444159,-3.684024 c -0.01326,-0.496477 -0.01977,-0.529919 -0.131802,-0.67764 -0.181182,-0.238889 -0.333134,-0.302248 -0.726517,-0.302933 -0.298569,-5.21e-4 -0.360203,0.01314 -0.510203,0.113075 -0.269859,0.179793 -0.349059,0.392459 -0.349059,0.937272 v 0.452476 h 0.865765 0.865761 z"
       id="path11115-58"
       sodipodi:nodetypes="sssccsscccscsssscccsssssssssscccs" />
    <path
       style="fill:#282828;fill-opacity:1;stroke-width:0.3;stroke:#282828;stroke-opacity:1;stroke-miterlimit:4;stroke-dasharray:none"
       d="m 53.674953,25.028688 v -3.218579 h 0.189293 0.189293 v 0.230424 c 0,0.126733 0.01818,0.241737 0.04041,0.255565 0.02222,0.01383 0.150976,-0.05085 0.286122,-0.143719 0.433678,-0.29803 0.735015,-0.42697 0.997837,-0.42697 0.316459,0 0.537759,0.117566 0.696925,0.37024 l 0.124024,0.196889 -9.25e-4,1.865685 c -0.001,2.077776 0.0057,2.024309 -0.298208,2.372772 -0.229712,0.263402 -0.488968,0.360178 -0.966203,0.360668 -0.344824,3.38e-4 -0.432416,-0.01458 -0.606725,-0.10342 -0.112044,-0.05711 -0.219365,-0.0941 -0.238488,-0.0822 -0.01912,0.0119 -0.03477,0.363542 -0.03477,0.781429 v 0.759796 h -0.189293 -0.189293 z m 1.761448,1.372771 c 0.07337,-0.04363 0.185014,-0.154302 0.248112,-0.245939 l 0.114723,-0.166612 0.01183,-1.794884 0.01183,-1.794885 -0.122123,-0.122947 c -0.157214,-0.158278 -0.301152,-0.192502 -0.533805,-0.126923 -0.208079,0.05865 -0.735511,0.391916 -0.964778,0.609607 l -0.148657,0.141152 4.2e-4,1.43489 c 0,0.886414 0.0174,1.497123 0.04514,1.597701 0.05849,0.212077 0.26904,0.438776 0.480437,0.517287 0.223883,0.08315 0.679039,0.05742 0.85705,-0.04845 z"
       id="path11115-2"
       sodipodi:nodetypes="ccccsscssccscssscccccscccsssccsscc" />
    <path
       style="fill:#282828;fill-opacity:1;stroke-width:0.3;stroke:#282828;stroke-opacity:1;stroke-miterlimit:4;stroke-dasharray:none"
       d="m 58.722755,24.308743 v -2.498634 h 0.210325 0.210325 v 0.254098 c 0,0.139754 0.01165,0.254098 0.02589,0.254098 0.01424,0 0.153318,-0.08528 0.30906,-0.189524 0.430459,-0.288105 0.702915,-0.40248 0.959898,-0.402958 0.283497,-5.29e-4 0.459909,0.07467 0.628384,0.267849 0.188085,0.215666 0.228947,0.398936 0.214014,0.959879 l -0.01296,0.487022 h -0.189293 -0.189292 l -0.01189,-0.528496 c -0.01134,-0.504058 -0.01696,-0.533827 -0.121593,-0.643776 -0.135281,-0.142159 -0.293227,-0.180473 -0.506093,-0.122765 -0.207654,0.05629 -0.625948,0.310992 -0.896174,0.545679 l -0.20995,0.182336 v 1.966913 1.966913 H 58.93308 58.722755 Z"
       id="path11115-10"
       sodipodi:nodetypes="ccccsscssscccsssscccccc" />
    <path
       style="fill:#282828;fill-opacity:1;stroke-width:0.3;stroke:#282828;stroke-opacity:1;stroke-miterlimit:4;stroke-dasharray:none"
       d="m 64.12614,26.835889 c -0.384504,-0.149151 -0.650161,-0.455516 -0.73517,-0.847814 -0.03181,-0.146805 -0.04284,-0.73839 -0.03367,-1.80641 0.01299,-1.513855 0.01781,-1.597203 0.102925,-1.782474 0.113112,-0.246205 0.330046,-0.465465 0.582041,-0.588278 0.281044,-0.136973 0.835659,-0.138132 1.147011,-0.0024 0.268615,0.117104 0.518216,0.380706 0.625389,0.660468 0.07392,0.192964 0.08017,0.337918 0.08017,1.860904 0,1.634128 -0.001,1.653885 -0.0968,1.863388 -0.126595,0.276917 -0.316409,0.473793 -0.57624,0.597669 -0.174814,0.08335 -0.274243,0.0998 -0.588911,0.09747 -0.208221,-0.0015 -0.43626,-0.02518 -0.506748,-0.05252 z m 1.027421,-0.464761 c 0.09566,-0.06373 0.200137,-0.185539 0.252436,-0.294302 0.08604,-0.178948 0.08922,-0.24199 0.08922,-1.768112 0,-1.526122 -0.0032,-1.589164 -0.08922,-1.768112 -0.05375,-0.111783 -0.157062,-0.230759 -0.259835,-0.299232 -0.15,-0.09994 -0.211634,-0.113596 -0.510203,-0.113075 -0.393451,6.86e-4 -0.545398,0.06406 -0.726517,0.303045 l -0.117854,0.155502 -0.0126,1.612644 c -0.0069,0.886954 -0.0019,1.671801 0.01127,1.744104 0.03302,0.181852 0.262402,0.432325 0.46404,0.506709 0.258507,0.09536 0.694969,0.05693 0.899258,-0.07917 z"
       id="path11115-99"
       sodipodi:nodetypes="sssssssscscssssscssscccsss" />
    <path
       style="fill:#282828;fill-opacity:1;stroke-width:0.3;stroke:#282828;stroke-opacity:1;stroke-miterlimit:4;stroke-dasharray:none"
       d="m 67.858833,28.01216 c 0.01216,-0.190473 0.02234,-0.207002 0.1474,-0.239435 0.07389,-0.01916 0.20166,-0.09876 0.283939,-0.176883 l 0.1496,-0.142045 v -2.821844 -2.821844 h 0.190138 0.190138 l -0.01136,2.914862 -0.01136,2.914862 -0.117104,0.154549 c -0.145915,0.192576 -0.439121,0.368992 -0.663656,0.399313 l -0.170792,0.02306 z m 0.580939,-7.620767 V 19.94672 h 0.189292 0.189293 v 0.444673 0.444672 h -0.189293 -0.189292 z"
       id="path11115-66"
       sodipodi:nodetypes="ssscccccccsscsccccccccc" />
    <path
       style="fill:#282828;fill-opacity:1;stroke-width:0.3;stroke:#282828;stroke-opacity:1;stroke-miterlimit:4;stroke-dasharray:none"
       d="m 72.057363,26.80596 c -0.255449,-0.118892 -0.452675,-0.315328 -0.572619,-0.570331 l -0.0996,-0.211749 v -1.715164 -1.715164 l 0.0996,-0.211749 c 0.214439,-0.455891 0.590635,-0.670943 1.169197,-0.668373 0.429093,0.0019 0.665969,0.0946 0.92289,0.361126 0.268673,0.278724 0.331392,0.521387 0.331392,1.282152 v 0.654105 l -1.062141,0.01131 -1.062142,0.01131 -0.01135,0.927169 c -0.0107,0.873765 -0.0062,0.937959 0.07871,1.114475 0.05457,0.113479 0.15731,0.232107 0.260672,0.300972 0.15,0.09994 0.211634,0.113596 0.510203,0.113076 0.402705,-7.03e-4 0.554816,-0.06748 0.740037,-0.324904 0.119889,-0.166622 0.125366,-0.193384 0.125366,-0.612552 v -0.438318 h 0.210325 0.210325 v 0.400734 c 0,0.64071 -0.212315,1.054143 -0.653816,1.273154 -0.255575,0.126781 -0.941802,0.137507 -1.197044,0.01871 z m 1.43021,-3.676683 c 0,-0.489657 -0.003,-0.506073 -0.125366,-0.676076 -0.185221,-0.257421 -0.337332,-0.324203 -0.740037,-0.324905 -0.298569,-5.21e-4 -0.360203,0.01314 -0.510203,0.113076 -0.269859,0.179793 -0.349059,0.392459 -0.349059,0.937272 v 0.452476 h 0.862332 0.862333 z"
       id="path11115-47"
       sodipodi:nodetypes="sscccsssscccscsssscccssssscssscccs" />
    <path
       style="fill:#282828;fill-opacity:1;stroke-width:0.3;stroke:#282828;stroke-opacity:1;stroke-miterlimit:4;stroke-dasharray:none"
       d="M 76.852774,26.80596 C 76.597326,26.687095 76.4001,26.490659 76.280155,26.235656 l -0.0996,-0.211749 v -1.715164 -1.715164 l 0.0996,-0.211749 c 0.214439,-0.455891 0.590635,-0.670943 1.169197,-0.668373 0.417933,0.0019 0.657237,0.09128 0.900999,0.336698 0.266347,0.26815 0.326921,0.443646 0.345568,1.001189 l 0.01672,0.500115 -0.204309,-0.01309 -0.204314,-0.01309 -0.02103,-0.469415 c -0.01938,-0.432552 -0.03029,-0.48161 -0.138886,-0.624703 -0.181237,-0.238807 -0.333197,-0.302147 -0.726517,-0.302832 -0.298569,-5.21e-4 -0.360203,0.01314 -0.510203,0.113076 -0.102773,0.06847 -0.206085,0.187449 -0.259835,0.299231 -0.08604,0.178948 -0.08922,0.241991 -0.08922,1.768113 0,1.526122 0.0032,1.589164 0.08922,1.768112 0.05375,0.111783 0.157062,0.230759 0.259835,0.299231 0.15,0.09994 0.211634,0.113596 0.510203,0.113076 0.402705,-7.03e-4 0.554816,-0.06748 0.740037,-0.324904 0.119889,-0.166622 0.125366,-0.193384 0.125366,-0.612552 v -0.438318 h 0.214978 0.214977 l -0.01711,0.455259 c -0.01954,0.519986 -0.09772,0.74925 -0.337938,0.991097 -0.243022,0.244665 -0.42049,0.308545 -0.895173,0.322223 -0.354023,0.0102 -0.450634,-0.0018 -0.609942,-0.07598 z"
       id="path11115-3"
       sodipodi:nodetypes="cscccscsscccssssssssssscccssscc" />
  </g>
</svg>
