<svg width="43" height="35" fill="none" xmlns="http://www.w3.org/2000/svg"><path d="M11.467 0C5.069.424 0 5.787 0 12.35h6.258c0-3.07 2.272-5.646 5.244-6.034V0h-.035ZM13.11 0v6.316c2.936.423 5.174 2.964 5.174 6.033h6.257C24.541 5.787 19.472.424 13.11 0Z" fill="#242424"/><path d="M29.855 0c-6.398.424-11.467 5.787-11.467 12.35h6.258c0-3.07 2.272-5.646 5.244-6.034V0h-.035ZM31.498 0v6.316c2.937.423 5.174 2.964 5.174 6.033h6.258C42.93 5.787 37.896.424 31.498 0ZM20.696 28.297C17.62 26.78 7.026 20.993 6.537 14.043H0c.49 10.373 16.78 18.946 20.661 20.852v-6.598h.035ZM36.498 14.043c-.455 6.95-11.083 12.737-14.16 14.254v6.598C26.22 32.989 42.546 24.415 43 14.043h-6.502Z" fill="#242424"/></svg>